<svg xmlns="http://www.w3.org/2000/svg" width="238" height="231" viewBox="0 0 238 231">
  <g id="Addis_Ababa_City_Government_" data-name="Addis Ababa City Government " transform="translate(-968 -4076)">
    <g id="Group_102" data-name="Group 102" transform="translate(-199 1009)">
      <g id="Rectangle_9" data-name="Rectangle 9" transform="translate(1167 3067)" fill="none" stroke="#000" stroke-width="7">
        <rect width="238" height="231" rx="115.5" stroke="none"/>
        <rect x="3.5" y="3.5" width="231" height="224" rx="112" fill="none"/>
      </g>
    </g>
    <g id="XMLID_1148_" transform="translate(1023 4105.62)">
      <g id="XMLID_353_" transform="translate(0 32.299)">
        <path id="XMLID_557_" d="M133.2,34.452A14.441,14.441,0,0,0,111.262,45a45.629,45.629,0,0,0-5.176,4.931A15.256,15.256,0,0,0,87.464,39.425a2.627,2.627,0,0,0-1.86,1.86A15.264,15.264,0,0,0,99.033,60.451a45.238,45.238,0,0,0-4.05,13.274l-2.041-2.041a38.441,38.441,0,0,1-5.166-6.593,14.029,14.029,0,0,0-14.929-6.168A15.345,15.345,0,0,0,61.139,71.365l-.475,2.808a32.69,32.69,0,0,0-6.17-5.576A35.958,35.958,0,0,0,34.4,62,57.985,57.985,0,0,1,4,53.4a2.626,2.626,0,0,0-4,2.237S0,70.778.009,71.019A43.575,43.575,0,0,0,33.795,112.7a53.77,53.77,0,0,1-17.605,2.98H6.716a2.626,2.626,0,0,0-2.626,2.626v.1a2.625,2.625,0,0,0,.282,1.183l14.513,28.746a2.626,2.626,0,0,0,3.951.893l12.787-9.9a23.663,23.663,0,0,1,14.41-4.925A39.844,39.844,0,0,0,71.116,128.4a2.626,2.626,0,1,0-2.776-4.458,34.6,34.6,0,0,1-18.306,5.218,28.94,28.94,0,0,0-17.624,6.023l-10.27,7.949-11.208-22.2h5.258a59.071,59.071,0,0,0,28.112-7.14h7.174a2.626,2.626,0,1,0,0-5.252H43.5a38.184,38.184,0,0,1-29.466-13.89,27.994,27.994,0,0,0,14.137,3.813H39.126a2.626,2.626,0,0,0,0-5.252H28.168A22.951,22.951,0,0,1,5.457,73.354a24.754,24.754,0,0,0,19.334,9.293H30.9a2.626,2.626,0,1,0,0-5.252H24.791A19.564,19.564,0,0,1,5.4,60.207a63.225,63.225,0,0,0,29,7.041A30.59,30.59,0,0,1,51.478,72.9c5.277,3.7,8.669,8.507,9.552,13.528a2.626,2.626,0,0,0,5.172-.91,21.736,21.736,0,0,0-1.353-4.592l1.468-8.682a10.052,10.052,0,0,1,7.633-8.182,8.824,8.824,0,0,1,9.4,3.857,43.581,43.581,0,0,0,5.88,7.483l.025.025a9.479,9.479,0,0,0-4.531,8.08V94.471a34.521,34.521,0,0,1-2.452,12.838,2.626,2.626,0,1,0,4.878,1.944A39.744,39.744,0,0,0,89.975,94.47V83.5A4.229,4.229,0,0,1,94.2,79.28a2.656,2.656,0,0,0,.337-.023,45.6,45.6,0,0,0,1.552,12.7A2.626,2.626,0,0,0,101.16,90.6a40.546,40.546,0,0,1-1.061-5.447c.289.016.578.026.867.026A15.273,15.273,0,0,0,115.75,65.952a2.626,2.626,0,0,0-1.86-1.86,15.349,15.349,0,0,0-11.317,1.378,40.035,40.035,0,0,1,11.5-15.976,14.44,14.44,0,0,0,20.37-12.724,2.625,2.625,0,0,0-1.245-2.317ZM90.391,44.211a10.023,10.023,0,0,1,11,11,10.023,10.023,0,0,1-11-11Zm20.572,24.667a10.023,10.023,0,0,1-11,11,10.023,10.023,0,0,1,11-11Zm13.394-24.453a9.23,9.23,0,0,1-7.756.439A9.185,9.185,0,0,1,129,38.2a9.23,9.23,0,0,1-4.646,6.226Z" transform="translate(0 -32.299)"/>
        <path id="XMLID_713_" d="M286.152,187.034a2.625,2.625,0,1,0-1.857.769A2.651,2.651,0,0,0,286.152,187.034Z" transform="translate(-207.707 -143.097)"/>
        <path id="XMLID_714_" d="M292.126,350.282a2.623,2.623,0,1,0,1.856.767A2.643,2.643,0,0,0,292.126,350.282Z" transform="translate(-213.481 -266.784)"/>
      </g>
    </g>
  </g>
</svg>
