<svg xmlns="http://www.w3.org/2000/svg" width="238" height="231" viewBox="0 0 238 231">
  <g id="Addis_Ababa_Bureau_" data-name="Addis Ababa Bureau " transform="translate(-1686 -4076)">
    <g id="Group_100" data-name="Group 100" transform="translate(-199 1009)">
      <g id="Rectangle_9" data-name="Rectangle 9" transform="translate(1885 3067)" fill="none" stroke="#000" stroke-width="7">
        <rect width="238" height="231" rx="115.5" stroke="none"/>
        <rect x="3.5" y="3.5" width="231" height="224" rx="112" fill="none"/>
      </g>
    </g>
    <g id="charity" transform="translate(1737.245 4117.027)">
      <path id="Path_134" data-name="Path 134" d="M390.338,107.022a5.9,5.9,0,0,0-2.036.281V98.543a5.835,5.835,0,0,0-7.616-5.56,5.843,5.843,0,0,0-5.833-5.725h-.116a5.842,5.842,0,0,0-5.139,3.071,5.789,5.789,0,0,0-2.471-.557h-.116a5.845,5.845,0,0,0-5.839,5.838v2.956a5.833,5.833,0,0,0-1.771-.276h-.145a5.859,5.859,0,0,0-5.837,5.759c-.017,1.341-.255,14.656.044,19.986.4,7.074,2.174,12.567,5.277,16.329a3.346,3.346,0,0,1,.78,2.117v6.647h-.041a3.393,3.393,0,0,0-3.389,3.388v4.346A2.982,2.982,0,0,0,354,159.7v40.586a2.033,2.033,0,0,0,2.033,2.033h32.325a2.033,2.033,0,0,0,2.033-2.033V160.827a4.1,4.1,0,0,0-2.089-3.569v-4.742a3.39,3.39,0,0,0-3.212-3.38V143.75a3.225,3.225,0,0,1,1.225-2.55c.131-.1.267-.213.406-.329a.34.34,0,0,0,.03-.024A25.745,25.745,0,0,0,396.015,121v-8a5.915,5.915,0,0,0-5.676-5.979Zm-4.069,53.771h.021a.034.034,0,0,1,.034.034v37.428H358.067V160.794Zm-26.114-4.067v-3.532h24.08v3.532ZM391.948,121a21.931,21.931,0,0,1-.976,6.5,21.494,21.494,0,0,1-6.859,10.25c-.108.09-.215.176-.316.256a7.266,7.266,0,0,0-2.773,5.742v5.378H363.587v-6.647a7.419,7.419,0,0,0-1.71-4.706c-2.541-3.078-4.005-7.779-4.354-13.97-.292-5.179-.056-18.356-.038-19.7a1.777,1.777,0,0,1,1.77-1.745h.145a1.77,1.77,0,0,1,1.771,1.771v11.416a2.033,2.033,0,0,0,4.067,0V95.61a1.775,1.775,0,0,1,1.773-1.773h.116A1.774,1.774,0,0,1,368.9,95.61v19.934a2.033,2.033,0,0,0,4.067,0V93.1a1.774,1.774,0,0,1,1.771-1.771h.116a1.774,1.774,0,0,1,1.773,1.771v22.448a2.033,2.033,0,0,0,4.067,0v-17a1.771,1.771,0,1,1,3.543,0v23.523a.869.869,0,0,1-.481.776,21.6,21.6,0,0,0-7.123,5.586,2.033,2.033,0,1,0,3.2,2.506,17.937,17.937,0,0,1,5.766-4.468,4.92,4.92,0,0,0,2.7-4.4v-9.158a1.822,1.822,0,0,1,1.891-1.821A1.888,1.888,0,0,1,391.949,113v8Zm0,0" transform="translate(-257.598 -63.619)"/>
      <path id="Path_135" data-name="Path 135" d="M37.276,197.074c3.1-3.762,4.879-9.255,5.277-16.329.3-5.33.2-10.735.11-15.961-.024-1.342-.049-2.684-.066-4.025A5.859,5.859,0,0,0,36.76,155h-.144a5.812,5.812,0,0,0-1.773.276v-2.956a5.844,5.844,0,0,0-5.838-5.838h-.116a5.789,5.789,0,0,0-2.471.557,5.845,5.845,0,0,0-5.14-3.071h-.115a5.841,5.841,0,0,0-5.833,5.725,5.836,5.836,0,0,0-7.617,5.56v8.761A5.9,5.9,0,0,0,0,169.712v8a26.008,26.008,0,0,0,1.159,7.709,25.741,25.741,0,0,0,8.1,12.14l.031.025c.14.115.275.225.405.328a3.224,3.224,0,0,1,1.225,2.55v5.386a3.39,3.39,0,0,0-3.212,3.38v4.742a4.1,4.1,0,0,0-2.089,3.569v9.205a2.033,2.033,0,0,0,4.067,0v-9.205a.034.034,0,0,1,.034-.034H37.949v22.1H9.69v-3.36a2.033,2.033,0,0,0-4.066,0v5.394a2.033,2.033,0,0,0,2.033,2.033H39.982a2.034,2.034,0,0,0,2.034-2.033V216.414a2.983,2.983,0,0,0-2.089-2.841v-4.346a3.393,3.393,0,0,0-3.389-3.388H36.5v-6.647a3.338,3.338,0,0,1,.78-2.118ZM35.86,213.438H11.78V209.9H35.86Zm-1.721-18.952a7.419,7.419,0,0,0-1.71,4.706v6.647H14.991v-5.378a7.271,7.271,0,0,0-2.773-5.743c-.1-.08-.208-.166-.316-.255a21.5,21.5,0,0,1-6.859-10.251,21.918,21.918,0,0,1-.976-6.5v-8A1.887,1.887,0,0,1,5.822,167.8a1.822,1.822,0,0,1,1.891,1.821v9.157a4.919,4.919,0,0,0,2.7,4.4,17.939,17.939,0,0,1,5.766,4.469,2.033,2.033,0,1,0,3.2-2.507,21.6,21.6,0,0,0-7.123-5.585.872.872,0,0,1-.481-.777V155.254a1.771,1.771,0,0,1,3.543,0v17a2.033,2.033,0,1,0,4.067,0V149.807a1.774,1.774,0,0,1,1.773-1.771h.116a1.774,1.774,0,0,1,1.771,1.771v22.448a2.033,2.033,0,0,0,4.067,0V152.321a1.773,1.773,0,0,1,1.771-1.771h.116a1.774,1.774,0,0,1,1.773,1.771v19.933a2.033,2.033,0,1,0,4.067,0V160.839a1.774,1.774,0,0,1,1.771-1.771h.145a1.775,1.775,0,0,1,1.77,1.745c.018,1.348.042,2.7.066,4.045.093,5.152.188,10.481-.1,15.66-.348,6.191-1.814,10.89-4.354,13.97Zm0,0" transform="translate(0 -104.967)"/>
      <path id="Path_136" data-name="Path 136" d="M210.377,22.178a6.37,6.37,0,0,0-2.524.419V12.415a6.3,6.3,0,0,0-8.54-5.892V6.3a6.311,6.311,0,0,0-6.3-6.3h-.13a6.31,6.31,0,0,0-5.655,3.523,6.257,6.257,0,0,0-2.885-.7h-.13a6.31,6.31,0,0,0-6.3,6.3v3.667a6.285,6.285,0,0,0-2.237-.412h-.162a6.325,6.325,0,0,0-6.3,6.217c-.02,1.5-.287,16.437.049,22.409.443,7.884,2.417,14,5.866,18.179a4,4,0,0,1,.932,2.534v7.706h-.3a3.559,3.559,0,0,0-3.555,3.555v5.068a3.1,3.1,0,0,0-2.344,3V136.67a2.034,2.034,0,0,0,2.033,2.034h36.272a2.034,2.034,0,0,0,2.033-2.034V96.981a2.033,2.033,0,0,0-4.066,0v37.656H173.925V82.017h31.919a.288.288,0,0,1,.287.287v5.238a2.033,2.033,0,0,0,4.066,0V82.3a4.356,4.356,0,0,0-2.344-3.858V72.979a3.559,3.559,0,0,0-3.555-3.556h-.049V63.142a3.868,3.868,0,0,1,1.469-3.057c.146-.114.3-.237.452-.365l.03-.025a28.634,28.634,0,0,0,10.307-22.083V28.638a6.388,6.388,0,0,0-6.129-6.459ZM176.269,77.951V73.49h27.518v4.46Zm36.172-40.339a24.841,24.841,0,0,1-1.107,7.372A24.353,24.353,0,0,1,203.56,56.6q-.187.154-.362.292a7.911,7.911,0,0,0-3.016,6.249v6.283H180.118V61.718a8.084,8.084,0,0,0-1.861-5.123c-2.886-3.5-4.548-8.818-4.942-15.818-.328-5.821-.221-11.8-.117-17.591q.041-2.268.074-4.537a2.243,2.243,0,0,1,2.236-2.2h.162a2.239,2.239,0,0,1,2.236,2.237V31.492a2.033,2.033,0,1,0,4.067,0V9.124a2.239,2.239,0,0,1,2.237-2.236h.13a2.24,2.24,0,0,1,2.237,2.236V31.492a2.033,2.033,0,1,0,4.066,0V6.3a2.24,2.24,0,0,1,2.237-2.237h.13A2.239,2.239,0,0,1,195.247,6.3V31.492a2.033,2.033,0,1,0,4.067,0V12.415a2.237,2.237,0,1,1,4.473,0V38.809a1.223,1.223,0,0,1-.677,1.092,24,24,0,0,0-7.909,6.2,2.033,2.033,0,1,0,3.2,2.506,20.353,20.353,0,0,1,6.552-5.082,5.273,5.273,0,0,0,2.9-4.716V28.534a2.293,2.293,0,0,1,2.379-2.292,2.368,2.368,0,0,1,2.208,2.4Zm0,0" transform="translate(-123.28)"/>
    </g>
  </g>
</svg>
