<svg xmlns="http://www.w3.org/2000/svg" width="238" height="231" viewBox="0 0 238 231">
  <g id="Group_199" data-name="Group 199" transform="translate(-254 -1521)">
    <g id="Group_87" data-name="Group 87" transform="translate(-199 -2057)">
      <g id="Rectangle_9" data-name="Rectangle 9" transform="translate(453 3578)" fill="none" stroke="#000032" stroke-width="7">
        <rect width="238" height="231" rx="115.5" stroke="none"/>
        <rect x="3.5" y="3.5" width="231" height="224" rx="112" fill="none"/>
      </g>
      <g id="Group_59" data-name="Group 59">
        <path id="Path_31" data-name="Path 31" d="M8.584,67.485,6.851,68.872H20.32l6.27-5.016A61.765,61.765,0,0,1,41.623,55.05,57.815,57.815,0,0,0,8.584,67.485Z" transform="translate(506.875 3691.329)" fill="#000032"/>
        <path id="Path_32" data-name="Path 32" d="M75.22,67.487A57.84,57.84,0,0,0,42.181,55.049a61.7,61.7,0,0,1,15.033,8.809l6.27,5.016H76.953Z" transform="translate(553.619 3691.328)" fill="#000032"/>
        <path id="Path_33" data-name="Path 33" d="M53.366,55A57.486,57.486,0,0,0,17.584,67.552l-1.733,1.387h75.03l-1.733-1.387A57.486,57.486,0,0,0,53.366,55Z" transform="translate(518.783 3691.263)" fill="#000032"/>
        <path id="Path_34" data-name="Path 34" d="M36.292,91.073v21.142h4.646V91.073a11.635,11.635,0,0,0,9.292-11.381V59.019A11.633,11.633,0,0,0,40.938,70.4V44.611a11.635,11.635,0,0,0,9.292-11.381V21.85a11.635,11.635,0,0,0-9.292,11.381V10H36.292V33.231A11.633,11.633,0,0,0,27,21.85V33.231a11.633,11.633,0,0,0,9.292,11.381V70.4A11.633,11.633,0,0,0,27,59.019V79.692a11.633,11.633,0,0,0,9.292,11.381Z" transform="translate(533.534 3631.725)" fill="#000032"/>
        <path id="Path_35" data-name="Path 35" d="M42.292,5.189V3.1A11.633,11.633,0,0,0,33,14.482V16.57A11.633,11.633,0,0,0,42.292,5.189Z" transform="translate(541.472 3622.597)" fill="#000032"/>
        <path id="Path_36" data-name="Path 36" d="M36.292,16.57V14.482A11.633,11.633,0,0,0,27,3.1V5.189A11.633,11.633,0,0,0,36.292,16.57Z" transform="translate(533.534 3622.597)" fill="#000032"/>
        <path id="Path_37" data-name="Path 37" d="M54.292,97.073v11.85h4.646V97.073a11.635,11.635,0,0,0,9.292-11.381V65.019A11.635,11.635,0,0,0,58.938,76.4V50.611a11.635,11.635,0,0,0,9.292-11.381V27.85a11.635,11.635,0,0,0-9.292,11.381V16H54.292V39.231A11.633,11.633,0,0,0,45,27.85V39.231a11.633,11.633,0,0,0,9.292,11.381V76.4A11.633,11.633,0,0,0,45,65.019V85.692a11.633,11.633,0,0,0,9.292,11.381Z" transform="translate(557.349 3639.663)" fill="#000032"/>
        <path id="Path_38" data-name="Path 38" d="M54.292,22.57V20.482A11.633,11.633,0,0,0,45,9.1v2.088A11.633,11.633,0,0,0,54.292,22.57Z" transform="translate(557.349 3630.536)" fill="#000032"/>
        <path id="Path_39" data-name="Path 39" d="M60.292,11.189V9.1A11.635,11.635,0,0,0,51,20.482V22.57A11.633,11.633,0,0,0,60.292,11.189Z" transform="translate(565.287 3630.536)" fill="#000032"/>
        <path id="Path_40" data-name="Path 40" d="M18.292,97.073v11.85h4.646V97.073a11.635,11.635,0,0,0,9.292-11.381V65.019A11.635,11.635,0,0,0,22.938,76.4V50.611a11.635,11.635,0,0,0,9.292-11.381V27.85a11.635,11.635,0,0,0-9.292,11.381V16H18.292V39.231A11.633,11.633,0,0,0,9,27.85V39.231a11.633,11.633,0,0,0,9.292,11.381V76.4A11.633,11.633,0,0,0,9,65.019V85.692a11.633,11.633,0,0,0,9.292,11.381Z" transform="translate(509.719 3639.663)" fill="#000032"/>
        <path id="Path_41" data-name="Path 41" d="M24.292,11.189V9.1A11.635,11.635,0,0,0,15,20.482V22.57A11.633,11.633,0,0,0,24.292,11.189Z" transform="translate(517.657 3630.536)" fill="#000032"/>
        <path id="Path_42" data-name="Path 42" d="M18.292,22.57V20.482A11.633,11.633,0,0,0,9,9.1v2.088A11.633,11.633,0,0,0,18.292,22.57Z" transform="translate(509.719 3630.536)" fill="#000032"/>
      </g>
    </g>
  </g>
</svg>
