<svg xmlns="http://www.w3.org/2000/svg" width="238" height="231" viewBox="0 0 238 231">
  <g id="City_Government_of_" data-name="City Government of " transform="translate(-1686 -3054)">
    <g id="Group_109" data-name="Group 109" transform="translate(-199 -13)">
      <g id="Rectangle_9" data-name="Rectangle 9" transform="translate(1885 3067)" fill="none" stroke="#000" stroke-width="7">
        <rect width="238" height="231" rx="115.5" stroke="none"/>
        <rect x="3.5" y="3.5" width="231" height="224" rx="112" fill="none"/>
      </g>
    </g>
    <path id="portfolio" d="M129.272,15.6H93.88V11.7A11.716,11.716,0,0,0,82.178,0H50.971a11.716,11.716,0,0,0-11.7,11.7v3.9H3.9A3.911,3.911,0,0,0,0,19.5v85.818a11.716,11.716,0,0,0,11.7,11.7H121.446a11.716,11.716,0,0,0,11.7-11.7V19.571c-.149-2.562-1.725-3.953-3.876-3.967Zm-82.2-3.9a3.906,3.906,0,0,1,3.9-3.9H82.178a3.906,3.906,0,0,1,3.9,3.9v3.9H47.07Zm76.765,11.7L111.721,59.746a3.894,3.894,0,0,1-3.7,2.668H86.079v-3.9a3.9,3.9,0,0,0-3.9-3.9H50.971a3.9,3.9,0,0,0-3.9,3.9v3.9H25.127a3.894,3.894,0,0,1-3.7-2.668L9.314,23.4ZM78.277,62.413v7.8h-23.4v-7.8Zm47.07,42.909a3.906,3.906,0,0,1-3.9,3.9H11.7a3.906,3.906,0,0,1-3.9-3.9V43.542l6.224,18.671a11.686,11.686,0,0,0,11.1,8H47.07v3.9a3.9,3.9,0,0,0,3.9,3.9H82.178a3.9,3.9,0,0,0,3.9-3.9v-3.9h21.943a11.686,11.686,0,0,0,11.1-8l6.224-18.671Zm0,0" transform="translate(1738.886 3110.165)"/>
  </g>
</svg>
