<svg xmlns="http://www.w3.org/2000/svg" width="238" height="231" viewBox="0 0 238 231">
  <g id="Group_198" data-name="Group 198" transform="translate(-968 -1521)">
    <g id="Group_88" data-name="Group 88" transform="translate(-199 -2057)">
      <g id="Rectangle_9" data-name="Rectangle 9" transform="translate(1167 3578)" fill="none" stroke="#000032" stroke-width="7">
        <rect width="238" height="231" rx="115.5" stroke="none"/>
        <rect x="3.5" y="3.5" width="231" height="224" rx="112" fill="none"/>
      </g>
      <g id="tool-box" transform="translate(1219 3597.65)">
        <path id="Path_58" data-name="Path 58" d="M123.712,61.566V58.423a5.58,5.58,0,0,0-5.573-5.573h-9.588a5.58,5.58,0,0,0-5.573,5.573v2.924H97.9v-6.9a9.912,9.912,0,0,0-6.36-9.3l-.034-.011v-1.6a5.193,5.193,0,0,0-5.187-5.188H80.76a1.921,1.921,0,0,0,0,3.843h5.558a1.346,1.346,0,0,1,1.345,1.345v5.908a1.346,1.346,0,0,1-1.345,1.345H48.6a1.347,1.347,0,0,1-1.345-1.345V43.538A1.346,1.346,0,0,1,48.6,42.193H71.489a1.921,1.921,0,0,0,0-3.843H48.6a5.193,5.193,0,0,0-5.188,5.188v1.6a10.012,10.012,0,0,0-6.394,9.308v6.9H31.944V58.423a5.58,5.58,0,0,0-5.573-5.573H16.783a5.58,5.58,0,0,0-5.573,5.573v3.143A13.647,13.647,0,0,0,0,74.975v64.457A13.644,13.644,0,0,0,13.628,153.06H100.95a1.921,1.921,0,0,0,0-3.843H13.628a9.8,9.8,0,0,1-9.786-9.786v-4.36H6.428A10.387,10.387,0,0,0,16.8,124.7V89.709A10.387,10.387,0,0,0,6.428,79.334H3.843V74.975a9.8,9.8,0,0,1,9.786-9.786H121.294a9.8,9.8,0,0,1,9.786,9.786v4.359h-2.586a10.387,10.387,0,0,0-10.375,10.375V124.7a10.387,10.387,0,0,0,10.375,10.375h2.586v4.359a9.8,9.8,0,0,1-9.786,9.786H110.156a1.921,1.921,0,1,0,0,3.843h11.138a13.643,13.643,0,0,0,13.628-13.628V74.975A13.648,13.648,0,0,0,123.712,61.566ZM6.428,83.177a6.54,6.54,0,0,1,6.532,6.532V124.7a6.54,6.54,0,0,1-6.532,6.532H3.843V83.176H6.428ZM106.821,58.423a1.733,1.733,0,0,1,1.731-1.731h9.588a1.733,1.733,0,0,1,1.731,1.731v2.924H106.821ZM40.865,54.445a6.15,6.15,0,0,1,2.553-4.974A5.193,5.193,0,0,0,48.6,54.633H86.318A5.193,5.193,0,0,0,91.5,49.466a6.086,6.086,0,0,1,2.552,4.979v6.9H40.866v-6.9ZM16.783,56.692H26.37A1.733,1.733,0,0,1,28.1,58.423v2.924H15.052V58.423A1.733,1.733,0,0,1,16.783,56.692Zm111.711,74.538a6.54,6.54,0,0,1-6.532-6.532V89.709a6.54,6.54,0,0,1,6.532-6.532h2.586v48.053Z" fill="#000032"/>
        <path id="Path_59" data-name="Path 59" d="M191.582,192.978a3.136,3.136,0,0,0,1.074-3.5,36.939,36.939,0,0,0-1.942-4.68,3.138,3.138,0,0,0-3.228-1.709,10.4,10.4,0,0,1-11.706-11.706,3.136,3.136,0,0,0-1.709-3.228,36.836,36.836,0,0,0-4.679-1.942,3.136,3.136,0,0,0-3.495,1.073,10.4,10.4,0,0,1-16.559,0,3.138,3.138,0,0,0-3.5-1.074,36.84,36.84,0,0,0-4.68,1.942,3.136,3.136,0,0,0-1.709,3.228,10.326,10.326,0,0,1-2.017,7.685A1.921,1.921,0,0,0,140.5,181.4a14.132,14.132,0,0,0,2.826-10.018,33.162,33.162,0,0,1,3.277-1.36,14.244,14.244,0,0,0,22.038,0,33.048,33.048,0,0,1,3.276,1.359,14.243,14.243,0,0,0,15.58,15.58,33.083,33.083,0,0,1,1.36,3.277,14.24,14.24,0,0,0,0,22.034,33.017,33.017,0,0,1-1.359,3.277,14.244,14.244,0,0,0-15.581,15.58,33.056,33.056,0,0,1-3.275,1.359,14.246,14.246,0,0,0-22.039,0,33,33,0,0,1-3.273-1.358,14.243,14.243,0,0,0-15.58-15.58,32.982,32.982,0,0,1-1.359-3.274,14.244,14.244,0,0,0,0-22.037,33.025,33.025,0,0,1,1.359-3.276,14.3,14.3,0,0,0,4-.169,1.921,1.921,0,0,0-.7-3.779,10.448,10.448,0,0,1-3.3.08,3.139,3.139,0,0,0-3.227,1.709,36.841,36.841,0,0,0-1.941,4.679,3.136,3.136,0,0,0,1.074,3.5,10.4,10.4,0,0,1,0,16.558,3.136,3.136,0,0,0-1.074,3.5,36.879,36.879,0,0,0,1.941,4.677,3.136,3.136,0,0,0,3.228,1.709,10.4,10.4,0,0,1,11.706,11.706,3.137,3.137,0,0,0,1.709,3.228,36.808,36.808,0,0,0,4.676,1.94,3.138,3.138,0,0,0,3.495-1.073,10.4,10.4,0,0,1,16.56,0,3.14,3.14,0,0,0,3.5,1.074,36.848,36.848,0,0,0,4.677-1.941,3.137,3.137,0,0,0,1.709-3.228,10.4,10.4,0,0,1,11.708-11.707,3.141,3.141,0,0,0,3.227-1.709,36.834,36.834,0,0,0,1.942-4.68,3.136,3.136,0,0,0-1.073-3.495,10.4,10.4,0,0,1,0-16.554Z" transform="translate(-90.158 -94.051)" fill="#000032"/>
        <path id="Path_60" data-name="Path 60" d="M216.01,245.37a14.17,14.17,0,1,0,14.17,14.17A14.17,14.17,0,0,0,216.01,245.37Zm0,24.545a10.375,10.375,0,1,1,10.375-10.375A10.375,10.375,0,0,1,216.01,269.915Z" transform="translate(-148.651 -152.466)" fill="#000032"/>
      </g>
    </g>
  </g>
</svg>
