<svg xmlns="http://www.w3.org/2000/svg" width="238" height="231" viewBox="0 0 238 231">
  <g id="Construction_" data-name="Construction " transform="translate(-254 -3054)">
    <g id="Group_108" data-name="Group 108" transform="translate(-199 -13)">
      <g id="Rectangle_9" data-name="Rectangle 9" transform="translate(453 3067)" fill="none" stroke="#000" stroke-width="7">
        <rect width="238" height="231" rx="115.5" stroke="none"/>
        <rect x="3.5" y="3.5" width="231" height="224" rx="112" fill="none"/>
      </g>
    </g>
    <g id="sketch" transform="translate(316.919 3108.331)">
      <g id="Group_136" data-name="Group 136" transform="translate(83.145 83.829)">
        <g id="Group_135" data-name="Group 135">
          <path id="Path_113" data-name="Path 113" d="M381.854,360.881a1.733,1.733,0,0,0-1.889.375l-18.94,18.94a1.733,1.733,0,0,0,1.226,2.959h18.94a1.733,1.733,0,0,0,1.733-1.733v-18.94A1.733,1.733,0,0,0,381.854,360.881Zm-15.42,18.808,13.023-13.023V379.69Z" transform="translate(-360.517 -360.749)"/>
        </g>
      </g>
      <g id="Group_138" data-name="Group 138" transform="translate(0 0.82)">
        <g id="Group_137" data-name="Group 137">
          <path id="Path_114" data-name="Path 114" d="M117.011,56.181a1.733,1.733,0,0,0-1.889.375l-5.191,5.191V26.454a1.733,1.733,0,0,0-1.733-1.733H94.882l4.834-4.834,0,0,4.658-4.658a5.286,5.286,0,0,0,0-7.474L98.989,2.368a5.286,5.286,0,0,0-7.474,0l-4.66,4.66-5.631,5.631L69.162,24.721h-53.8V7.575a1.733,1.733,0,0,0-1.733-1.733A13.647,13.647,0,0,0,0,19.474V93.086a1.737,1.737,0,0,0,.041.372,13.127,13.127,0,0,0,13.088,12.13H66.089l-9.974,9.974a1.733,1.733,0,0,0,1.226,2.959h59.007a1.733,1.733,0,0,0,1.733-1.733V57.782A1.734,1.734,0,0,0,117.011,56.181ZM93.967,4.819a1.82,1.82,0,0,1,2.571,0l5.386,5.386a1.82,1.82,0,0,1,0,2.571L98.49,16.211,90.532,8.253ZM88.081,10.7l7.958,7.958-3.18,3.18L84.9,13.885Zm26.534,66.553h-3.2a1.733,1.733,0,1,0,0,3.466h3.2v5.223h-3.2a1.733,1.733,0,1,0,0,3.466h3.2v5.223h-3.2a1.733,1.733,0,1,0,0,3.466h3.2v5.223h-3.2a1.733,1.733,0,1,0,0,3.466h3.2v8.266H61.525L79.031,97.55A1.733,1.733,0,0,0,76.58,95.1l-7.024,7.024H13.129a9.608,9.608,0,0,1-9.654-9.351q.015-.494.077-.979v-.006q.029-.23.069-.458l.009-.052q.036-.2.081-.4c.008-.037.017-.075.026-.112q.039-.17.085-.339c.017-.061.034-.121.052-.182.025-.088.052-.176.08-.263s.058-.173.088-.259c.021-.06.042-.12.064-.18.042-.113.087-.226.133-.337.013-.032.026-.065.04-.1.059-.138.121-.275.186-.41l.008-.017a10.2,10.2,0,0,1,7.092-5.546l.026-.006c.143-.029.288-.054.434-.078l.073-.012c.132-.02.265-.036.4-.051l.112-.014c.128-.013.258-.021.388-.03l.123-.009q.255-.013.513-.013a1.733,1.733,0,0,0,1.733-1.733V68.621a1.733,1.733,0,1,0-3.466,0V79.564a13.537,13.537,0,0,0-7.785,3.767c-.225.22-.439.449-.647.681V19.474A10.183,10.183,0,0,1,11.9,9.456V61.689h0a1.733,1.733,0,1,0,3.466,0h0v-33.5H65.7l-9.581,9.581a1.733,1.733,0,1,0,2.451,2.451l12.54-12.54h0L82.45,16.335l7.957,7.958-.934.934,0,0L54.525,60.176l-7.958-7.958,6.888-6.888a1.733,1.733,0,1,0-2.451-2.451l-8.114,8.114a1.74,1.74,0,0,0-.122.136c-.013.016-.024.033-.036.049-.024.033-.048.065-.071.1s-.024.04-.036.061-.038.065-.054.1-.021.044-.031.066-.03.068-.043.1c0,.012-.011.024-.015.036l-3.377,9.565-2.3,6.522a1.753,1.753,0,0,0-.069.264H30.971a1.733,1.733,0,1,0,0,3.466h48a1.733,1.733,0,1,0,0-3.466H44.532L55.1,64.261l.026-.011c.041-.015.081-.032.121-.05l.047-.022c.042-.021.082-.044.122-.068l.039-.023c.042-.027.082-.056.122-.087l.03-.022a1.74,1.74,0,0,0,.14-.125L91.415,28.188h15.05V65.214L81.673,90.006a1.733,1.733,0,0,0,0,2.451,1.768,1.768,0,0,0,.132.119,1.732,1.732,0,0,0,2.319-.119h0l30.49-30.49Zm-63.26-15.35L46.391,63.66l-3.308-3.308,1.753-4.964Z" transform="translate(0 -0.82)"/>
        </g>
      </g>
    </g>
  </g>
</svg>
