<?xml version="1.0" encoding="UTF-8" standalone="no"?>
<svg
   width="238"
   height="231"
   viewBox="0 0 238 231"
   version="1.1"
   id="svg22"
   sodipodi:docname="Environment.svg"
   inkscape:version="1.1.1 (3bf5ae0d25, 2021-09-20)"
   xmlns:inkscape="http://www.inkscape.org/namespaces/inkscape"
   xmlns:sodipodi="http://sodipodi.sourceforge.net/DTD/sodipodi-0.dtd"
   xmlns="http://www.w3.org/2000/svg"
   xmlns:svg="http://www.w3.org/2000/svg">
  <defs
     id="defs26" />
  <sodipodi:namedview
     id="namedview24"
     pagecolor="#ffffff"
     bordercolor="#666666"
     borderopacity="1.0"
     inkscape:pageshadow="2"
     inkscape:pageopacity="0.0"
     inkscape:pagecheckerboard="0"
     showgrid="false"
     inkscape:zoom="0.87878788"
     inkscape:cx="415.91379"
     inkscape:cy="323.74138"
     inkscape:window-width="1920"
     inkscape:window-height="1001"
     inkscape:window-x="-9"
     inkscape:window-y="-9"
     inkscape:window-maximized="1"
     inkscape:current-layer="svg22" />
  <g
     id="g253">
    <g
       id="g6"
       transform="matrix(0.33546807,0,0,0.33546807,31.475044,23.541965)">
      <g
         id="g4">
        <path
           d="m 255.99,196.684 c -46.857,0 -84.979,38.122 -84.979,84.979 0,46.857 38.122,84.979 84.979,84.979 46.857,0 84.979,-38.121 84.979,-84.979 0,-46.857 -38.122,-84.979 -84.979,-84.979 z m 68.463,76.962 h -26.418 c -0.404,-9.522 -1.523,-18.494 -3.258,-26.723 h 20.728 c 4.701,8.022 7.824,17.07 8.948,26.723 z m -21.879,-42.757 h -12.279 c -1.513,-4.218 -3.22,-8.115 -5.096,-11.659 6.385,3 12.238,6.942 17.375,11.659 z M 255.99,212.718 c 5.423,0 11.907,6.458 17.066,18.172 h -34.133 c 5.16,-11.714 11.644,-18.172 17.067,-18.172 z m -59.517,34.205 h 20.728 c -1.734,8.229 -2.854,17.201 -3.258,26.723 h -26.419 c 1.125,-9.653 4.249,-18.701 8.949,-26.723 z m -8.946,42.757 h 26.418 c 0.404,9.522 1.523,18.494 3.258,26.723 h -20.728 c -4.702,-8.022 -7.825,-17.07 -8.948,-26.723 z m 21.878,42.756 h 12.279 c 1.513,4.218 3.22,8.115 5.096,11.659 -6.384,-2.999 -12.238,-6.941 -17.375,-11.659 z m 12.279,-101.547 h -12.279 c 5.137,-4.717 10.991,-8.659 17.374,-11.659 -1.877,3.545 -3.583,7.441 -5.095,11.659 z m 34.306,119.719 c -5.423,0 -11.907,-6.457 -17.066,-18.172 h 34.133 c -5.161,11.714 -11.645,18.172 -17.067,18.172 z m 22.357,-34.205 h -44.716 c -1.87,-7.771 -3.182,-16.727 -3.645,-26.723 h 52.006 c -0.463,9.995 -1.775,18.952 -3.645,26.723 z m -48.361,-42.757 c 0.463,-9.995 1.775,-18.952 3.645,-26.723 h 44.716 c 1.87,7.771 3.182,16.727 3.645,26.723 z m 55.214,70.449 c 1.876,-3.543 3.583,-7.44 5.096,-11.659 h 12.279 c -5.138,4.718 -10.991,8.66 -17.375,11.659 z m 30.306,-27.692 h -20.73 c 1.734,-8.229 2.854,-17.201 3.258,-26.723 h 26.419 c -1.123,9.653 -4.247,18.701 -8.947,26.723 z"
           id="path2" />
      </g>
    </g>
    <g
       id="g12"
       transform="matrix(0.33546807,0,0,0.33546807,31.475044,23.541965)">
      <g
         id="g10">
        <path
           d="m 179.028,376.262 h -54.252 l 13.292,-22.153 19.848,11.459 c 2.915,1.682 6.734,1.307 9.272,-0.9 2.539,-2.208 3.431,-5.943 2.163,-9.062 l -36.722,-90.321 c -1.381,-3.398 -4.891,-5.422 -8.526,-4.921 l -96.58,13.359 c -3.247,0.449 -5.958,2.918 -6.706,6.109 -0.798,3.402 0.769,7.028 3.797,8.776 l 20.109,11.61 -6.445,11.815 c -2.121,3.887 -0.688,8.757 3.199,10.876 3.889,2.123 8.757,0.688 10.876,-3.199 l 10.191,-18.684 c 2.084,-3.82 0.74,-8.606 -3.029,-10.781 l -6.65,-3.84 67.26,-9.303 25.573,62.898 -6.439,-3.718 c -3.789,-2.187 -8.632,-0.933 -10.883,2.818 l -22.298,37.163 H 21.505 l 19.187,-35.177 c 2.12,-3.888 0.687,-8.757 -3.199,-10.877 -3.889,-2.12 -8.757,-0.687 -10.877,3.199 L 0.962,380.44 c -1.6,2.936 -1.159,6.716 1.078,9.201 l 76.962,85.513 c 1.52,1.69 3.687,2.654 5.959,2.654 h 94.065 c 4.427,0 8.017,-3.589 8.017,-8.017 v -85.513 c 0.001,-4.426 -3.588,-8.016 -8.015,-8.016 z m -8.017,85.514 H 88.533 L 26.001,392.296 H 171.01 v 69.48 z"
           id="path8" />
      </g>
    </g>
    <g
       id="g18"
       transform="matrix(0.33546807,0,0,0.33546807,31.475044,23.541965)">
      <g
         id="g16">
        <path
           d="m 382.84,88.564 c -2.046,-2.553 -5.543,-3.615 -8.666,-2.631 L 352.03,92.915 322.447,6.454 C 321.365,3.297 318.289,1.07 314.952,1.033 L 281.733,0.659 c -4.389,-0.056 -8.056,3.499 -8.107,7.926 -0.05,4.427 3.499,8.056 7.926,8.107 l 15.274,0.172 -98.004,106.953 -51.226,-46.94 55.721,-60.809 44.048,0.394 c 0.025,0 0.049,0 0.074,0 4.393,0 7.975,-3.542 8.015,-7.945 0.04,-4.427 -3.518,-8.049 -7.944,-8.089 L 199.892,0.001 C 197.6,-0.05 195.444,0.926 193.909,2.602 L 130.36,71.954 c -2.95,3.22 -2.723,8.378 0.495,11.327 l 63.047,57.774 c 3.221,2.95 8.378,2.723 11.327,-0.495 l 36.651,-39.998 7.353,24.766 -21.857,6.891 c -3.179,1.003 -5.451,3.966 -5.597,7.294 -0.151,3.438 1.989,6.668 5.216,7.867 l 91.4,33.946 c 3.399,1.262 7.328,0.022 9.388,-2.96 l 55.4,-80.232 c 1.992,-2.884 1.849,-6.837 -0.343,-9.57 z m -64.708,75.562 -63.652,-23.64 7.092,-2.236 c 4.172,-1.316 6.52,-5.734 5.275,-9.928 l -12.335,-41.546 57.136,-62.353 27.746,81.088 c 1.41,4.117 5.847,6.361 9.997,5.051 l 7.322,-2.309 z"
           id="path14" />
      </g>
    </g>
    <g
       id="g24"
       transform="matrix(0.33546807,0,0,0.33546807,31.475044,23.541965)">
      <g
         id="g22">
        <path
           d="m 510.921,357.133 -16.264,-28.17 c -2.214,-3.834 -7.118,-5.149 -10.951,-2.934 -3.834,2.214 -5.148,7.117 -2.934,10.951 l 14.479,25.078 -28.906,88.893 -72.505,-125.582 60.172,-34.74 11.947,20.693 c 2.215,3.835 7.118,5.148 10.951,2.934 3.834,-2.214 5.148,-7.117 2.934,-10.951 l -15.956,-27.636 c -2.214,-3.834 -7.118,-5.149 -10.951,-2.934 l -74.057,42.757 c -3.778,2.182 -5.119,7.168 -2.934,10.951 l 27.126,46.983 -25.832,-0.434 v -22.919 c 0,-3.278 -2.074,-6.301 -5.132,-7.48 -3.26,-1.256 -7.067,-0.201 -9.213,2.558 l -59.859,76.962 c -2.252,2.895 -2.252,6.948 0,9.844 l 59.859,76.962 c 2.213,2.847 6.175,3.867 9.49,2.446 2.915,-1.251 4.855,-4.195 4.855,-7.367 V 480.78 l 91.356,-2.217 c 3.345,-0.077 6.395,-2.358 7.43,-5.535 L 511.602,363.62 c 0.704,-2.16 0.456,-4.518 -0.681,-6.487 z M 369.029,464.941 c -4.351,0.106 -7.822,3.663 -7.822,8.015 v 7.677 l -41.687,-53.597 41.687,-53.597 v 7.436 c 0,4.375 3.507,7.942 7.882,8.016 l 43.333,0.729 42.286,73.241 z"
           id="path20" />
      </g>
    </g>
    <g
       id="g26"
       transform="matrix(0.33546807,0,0,0.33546807,31.475044,23.541965)" />
    <g
       id="g28"
       transform="matrix(0.33546807,0,0,0.33546807,31.475044,23.541965)" />
    <g
       id="g30"
       transform="matrix(0.33546807,0,0,0.33546807,31.475044,23.541965)" />
    <g
       id="g32"
       transform="matrix(0.33546807,0,0,0.33546807,31.475044,23.541965)" />
    <g
       id="g34"
       transform="matrix(0.33546807,0,0,0.33546807,31.475044,23.541965)" />
    <g
       id="g36"
       transform="matrix(0.33546807,0,0,0.33546807,31.475044,23.541965)" />
    <g
       id="g38"
       transform="matrix(0.33546807,0,0,0.33546807,31.475044,23.541965)" />
    <g
       id="g40"
       transform="matrix(0.33546807,0,0,0.33546807,31.475044,23.541965)" />
    <g
       id="g42"
       transform="matrix(0.33546807,0,0,0.33546807,31.475044,23.541965)" />
    <g
       id="g44"
       transform="matrix(0.33546807,0,0,0.33546807,31.475044,23.541965)" />
    <g
       id="g46"
       transform="matrix(0.33546807,0,0,0.33546807,31.475044,23.541965)" />
    <g
       id="g48"
       transform="matrix(0.33546807,0,0,0.33546807,31.475044,23.541965)" />
    <g
       id="g50"
       transform="matrix(0.33546807,0,0,0.33546807,31.475044,23.541965)" />
    <g
       id="g52"
       transform="matrix(0.33546807,0,0,0.33546807,31.475044,23.541965)" />
    <g
       id="g54"
       transform="matrix(0.33546807,0,0,0.33546807,31.475044,23.541965)" />
    <rect
       x="3.5"
       y="3.5"
       width="231"
       height="224"
       rx="112"
       fill="none"
       id="rect4"
       style="stroke:#000000;stroke-width:7" />
  </g>
</svg>
