<svg xmlns="http://www.w3.org/2000/svg" width="238" height="231" viewBox="0 0 238 231">
  <g id="Ethiopian_Investment" data-name="Ethiopian Investment" transform="translate(-254 -5056)">
    <g id="Group_165" data-name="Group 165" transform="translate(-199 1478)">
      <g id="Rectangle_9" data-name="Rectangle 9" transform="translate(453 3578)" fill="none" stroke="#000" stroke-width="7">
        <rect width="238" height="231" rx="115.5" stroke="none"/>
        <rect x="3.5" y="3.5" width="231" height="224" rx="112" fill="none"/>
      </g>
    </g>
    <g id="investment" transform="translate(314.359 5108.359)">
      <path id="Path_144" data-name="Path 144" d="M67.754,80.2h3.185v26.727a3.2,3.2,0,0,0,3.2,3.2h3.655a3.2,3.2,0,0,0,3.2-3.2V80.2h3.185a2.17,2.17,0,0,0,1.854-3.3L77.819,63.394a2.17,2.17,0,0,0-3.709,0h0L65.9,76.906a2.17,2.17,0,0,0,1.854,3.3Zm9.285-15.029v0ZM75.964,66.94l5.977,9.836h-1.18a3.2,3.2,0,0,0-3.2,3.2V106.7h-3.2V79.974a3.2,3.2,0,0,0-3.2-3.2h-1.18Z" transform="translate(-50.603 -48.108)"/>
      <path id="Path_145" data-name="Path 145" d="M33.224,193.572h3.655a3.2,3.2,0,0,0,3.2-3.2V173.7a3.2,3.2,0,0,0-3.2-3.2H33.224a3.2,3.2,0,0,0-3.2,3.2v16.676A3.2,3.2,0,0,0,33.224,193.572Zm.228-19.645h3.2v16.219h-3.2Z" transform="translate(-23.167 -131.552)"/>
      <path id="Path_146" data-name="Path 146" d="M114.113,20.318,96.639,2.843A9.647,9.647,0,0,0,89.774,0H44.2a5.146,5.146,0,0,0-5.14,5.14V65.56H10.85a4,4,0,0,0-4,4v3.426a3.99,3.99,0,0,0,.046.571H4a4,4,0,0,0-4,4v3.426a4,4,0,0,0,4,4H6.9a3.99,3.99,0,0,0-.046.571v3.426a3.99,3.99,0,0,0,.046.571H4a4,4,0,0,0-4,4v3.426a4,4,0,0,0,4,4H6.9a3.99,3.99,0,0,0-.046.571v3.426a3.99,3.99,0,0,0,.046.571H4a4,4,0,0,0-4,4v3.426a4,4,0,0,0,4,4h107.82a5.146,5.146,0,0,0,5.14-5.14v-65.1a1.713,1.713,0,1,0-3.426,0v65.1a1.715,1.715,0,0,1-1.713,1.713H52.95a3.99,3.99,0,0,0,.046-.571v-3.426a3.99,3.99,0,0,0-.046-.571h2.9a4,4,0,0,0,4-4v-3.426a4,4,0,0,0-4-4h-2.9A3.99,3.99,0,0,0,53,96.969V93.543a3.99,3.99,0,0,0-.046-.571h2.9a4,4,0,0,0,4-4V85.548a4,4,0,0,0-4-4h-2.9A3.99,3.99,0,0,0,53,80.979V77.553a3.99,3.99,0,0,0-.046-.571h2.9a4,4,0,0,0,4-4V69.557a4,4,0,0,0-4-4H42.488V5.14A1.715,1.715,0,0,1,44.2,3.426H89.661a1.714,1.714,0,0,1,1.712,1.712v5.141H52.2a2.858,2.858,0,0,0-2.855,2.855V42.146A2.858,2.858,0,0,0,52.2,45h51.626a2.858,2.858,0,0,0,2.855-2.855V25.584h5.14A1.715,1.715,0,0,1,113.53,27.3V38.719a1.713,1.713,0,1,0,3.426,0V27.183A9.645,9.645,0,0,0,114.113,20.318Zm-57.691,81.22v3.426a.572.572,0,0,1-.571.571H23.414a1.713,1.713,0,0,0,0,3.426H49a.572.572,0,0,1,.571.571v3.426a.572.572,0,0,1-.571.571H4a.572.572,0,0,1-.571-.571v-3.426A.572.572,0,0,1,4,108.962H15.419a1.713,1.713,0,0,0,0-3.426H10.85a.572.572,0,0,1-.571-.571v-3.426a.572.572,0,0,1,.571-.571h45A.572.572,0,0,1,56.423,101.538Zm-6.853-8v3.426A.572.572,0,0,1,49,97.54H4a.572.572,0,0,1-.571-.571V93.543A.572.572,0,0,1,4,92.972H49A.572.572,0,0,1,49.57,93.543Zm6.853-8v3.426a.572.572,0,0,1-.571.571h-45a.572.572,0,0,1-.571-.571V85.548a.572.572,0,0,1,.571-.571h45A.572.572,0,0,1,56.423,85.548Zm-6.853-8v3.426A.572.572,0,0,1,49,81.55H4a.572.572,0,0,1-.571-.571V77.553A.572.572,0,0,1,4,76.981H49A.572.572,0,0,1,49.57,77.553Zm6.853-8v3.426a.572.572,0,0,1-.571.571h-45a.572.572,0,0,1-.571-.571V69.557a.572.572,0,0,1,.571-.571h45A.572.572,0,0,1,56.423,69.557Zm54.685-47.4h-14.6A1.715,1.715,0,0,1,94.8,20.445V5.849Zm-7.856,19.417H52.768V13.706h38.6v6.739a5.146,5.146,0,0,0,5.14,5.14h6.739Z" transform="translate(0 0)"/>
      <path id="Path_147" data-name="Path 147" d="M341.213,455.426h25.7a1.713,1.713,0,1,0,0-3.426h-25.7a1.713,1.713,0,1,0,0,3.426Z" transform="translate(-261.948 -348.749)"/>
      <path id="Path_148" data-name="Path 148" d="M340.545,396.1a1.714,1.714,0,0,0,2.358-.556l3.063-4.953,2.294,4.3a2.856,2.856,0,0,0,4.948.158l2.757-4.458,2.319,4.348a2.83,2.83,0,0,0,2.394,1.509l.13,0a2.829,2.829,0,0,0,2.387-1.3l5.2-7.968a1.713,1.713,0,1,0-2.87-1.872l-4.669,7.159-2.332-4.372a2.856,2.856,0,0,0-4.948-.158l-2.757,4.458-2.294-4.3a2.856,2.856,0,0,0-4.948-.158l-3.585,5.8A1.713,1.713,0,0,0,340.545,396.1Z" transform="translate(-262.127 -296.694)"/>
      <path id="Path_149" data-name="Path 149" d="M367.3,317H341.713a1.713,1.713,0,0,0,0,3.426H367.3a1.713,1.713,0,1,0,0-3.426Z" transform="translate(-262.333 -244.587)"/>
      <path id="Path_150" data-name="Path 150" d="M331.034,287H294.713a1.713,1.713,0,0,0,0,3.426h36.321a1.713,1.713,0,0,0,0-3.426Z" transform="translate(-226.07 -221.44)"/>
      <path id="Path_151" data-name="Path 151" d="M271.623,257h-53.91a1.713,1.713,0,1,0,0,3.426h53.91a1.713,1.713,0,1,0,0-3.426Z" transform="translate(-166.659 -198.293)"/>
      <path id="Path_152" data-name="Path 152" d="M271.623,227h-53.91a1.713,1.713,0,0,0,0,3.427h53.91a1.713,1.713,0,0,0,0-3.427Z" transform="translate(-166.659 -175.146)"/>
    </g>
  </g>
</svg>
