<svg xmlns="http://www.w3.org/2000/svg" width="238" height="231" viewBox="0 0 238 231">
  <g id="Ethiopian_President_s_" data-name="Ethiopian President&apos;s " transform="translate(-254 -1010)">
    <g id="Group_90" data-name="Group 90" transform="translate(-199 -2057)">
      <g id="Rectangle_9" data-name="Rectangle 9" transform="translate(453 3067)" fill="none" stroke="#000" stroke-width="7">
        <rect width="238" height="231" rx="115.5" stroke="none"/>
        <rect x="3.5" y="3.5" width="231" height="224" rx="112" fill="none"/>
      </g>
      <path id="Path_57" data-name="Path 57" d="M2.056,29.532a4.325,4.325,0,0,0-.068.639v4.4a4.36,4.36,0,0,0,2.829,4.069V45.11a4.068,4.068,0,0,0,3.875,4.05V86.545a4.069,4.069,0,0,0-3.875,4.05v6.452a4.409,4.409,0,0,0-2.829,4.108v4.3a1.454,1.454,0,0,0,1.454,1.453h98a1.453,1.453,0,0,0,1.453-1.453v-4.3a4.408,4.408,0,0,0-2.829-4.108v-6.49a4.069,4.069,0,0,0-3.875-4.05V49.16a4.069,4.069,0,0,0,3.875-4.05V38.639A4.36,4.36,0,0,0,102.9,34.57V30.2a4.225,4.225,0,0,0-.068-.639A1.447,1.447,0,0,0,104,26.916L53.111.169a1.454,1.454,0,0,0-1.357,0L.865,26.887a1.453,1.453,0,0,0,1.191,2.645ZM7.724,41.157V38.919H24.483v2.219ZM45.041,49.17V86.545a4.069,4.069,0,0,0-3.875,4.05v6.181H27.37V90.594a4.069,4.069,0,0,0-3.875-4.05V49.16a4.068,4.068,0,0,0,3.875-4.05V38.919H41.146V45.1a4.07,4.07,0,0,0,3.876,4.059Zm-.969-8.012V38.919h16.76v2.219ZM81.389,49.17V86.545a4.07,4.07,0,0,0-3.876,4.05v6.181h-13.8V90.594a4.07,4.07,0,0,0-3.875-4.05V49.16a4.069,4.069,0,0,0,3.875-4.05V38.919H77.495V45.1A4.069,4.069,0,0,0,81.37,49.16Zm-.969-8.012V38.919H97.18v2.219Zm16.759,53.4v2.218H80.4V94.557Zm-36.348,0v2.218H44.053V94.557ZM46.474,46.283H45.215a1.162,1.162,0,0,1-1.162-1.162V44.064H60.812V45.12a1.162,1.162,0,0,1-1.162,1.162Zm10.473,2.906V86.525H47.928V49.189ZM46.474,89.432H59.65a1.162,1.162,0,0,1,1.162,1.162V91.65H44.053V90.594a1.162,1.162,0,0,1,1.162-1.162Zm-22.01,5.125v2.218H7.7V94.557ZM7.7,45.149V44.064h16.76V45.12A1.162,1.162,0,0,1,23.3,46.283H8.837A1.162,1.162,0,0,1,7.7,45.11Zm12.885,4.069V86.525h-9.01V49.189ZM7.7,90.624a1.162,1.162,0,0,1,1.162-1.163H23.3a1.162,1.162,0,0,1,1.163,1.163V91.68H7.7ZM99.99,101.212v2.848H4.875v-2.848a1.5,1.5,0,0,1,1.5-1.5H98.488a1.5,1.5,0,0,1,1.5,1.473ZM97.161,90.624V91.68H80.4V90.624a1.162,1.162,0,0,1,1.162-1.163H96.028a1.163,1.163,0,0,1,1.133,1.133Zm-12.885-4.07V49.189H93.3V86.525ZM97.161,45.149A1.162,1.162,0,0,1,96,46.311H81.573a1.162,1.162,0,0,1-1.162-1.162V44.064H97.17ZM52.433,3.075,95.708,25.822H9.158ZM4.875,30.2a1.453,1.453,0,0,1,1.453-1.453H98.537A1.453,1.453,0,0,1,99.99,30.2v4.4a1.453,1.453,0,0,1-1.453,1.453H6.328A1.453,1.453,0,0,1,4.875,34.6Zm0,0" transform="translate(519.911 3128.999)"/>
    </g>
  </g>
</svg>
