<svg xmlns="http://www.w3.org/2000/svg" width="238" height="231" viewBox="0 0 238 231">
  <g id="Ethiopian_Ministry_" data-name="Ethiopian Ministry " transform="translate(-1686 -1521)">
    <g id="Group_89" data-name="Group 89" transform="translate(-199 -2057)">
      <g id="Rectangle_9" data-name="Rectangle 9" transform="translate(1885 3578)" fill="none" stroke="#000" stroke-width="7">
        <rect width="238" height="231" rx="115.5" stroke="none"/>
        <rect x="3.5" y="3.5" width="231" height="224" rx="112" fill="none"/>
      </g>
      <g id="Group_60" data-name="Group 60">
        <g id="Group_44" data-name="Group 44" transform="translate(1937.945 3635.943)">
          <g id="Group_43" data-name="Group 43" transform="translate(0)">
            <path id="Path_49" data-name="Path 49" d="M132.294,20.861c-8.3-8.3-23.6-14.553-34.18-17.389A102.672,102.672,0,0,0,72.71,0a50.569,50.569,0,0,0-12.891,1.44,2.6,2.6,0,0,0-1.838,1.838c-.763,2.848-1.418,5.823-1.963,8.873a2.548,2.548,0,0,0-.047.272,124.96,124.96,0,0,0-1.063,36.424,104.907,104.907,0,0,0-19.967,3.289C24.361,54.971,9.061,61.226.761,69.525a2.6,2.6,0,0,0-.673,2.51c.83,3.1,1.842,6.254,3.006,9.419l0,.012a124.705,124.705,0,0,0,16.429,30.673c7.134,9.543,18.367,20.917,31.371,20.917a21.366,21.366,0,0,0,5.53-.727c7.936-2.127,14.169-8.754,18.026-19.165,2.935-7.924,4.5-17.9,4.569-29a21.379,21.379,0,0,0,3.131.233c13,0,24.236-11.375,31.371-20.918a124.32,124.32,0,0,0,19.441-40.1A2.6,2.6,0,0,0,132.294,20.861ZM55.084,127.308a16.178,16.178,0,0,1-4.185.55c-8.467,0-18.129-6.688-27.208-18.832A118.792,118.792,0,0,1,8.613,81.363c1.4-1.087,3.64-2.777,5.961-4.343a2.6,2.6,0,1,0-2.907-4.309c-1.8,1.215-3.526,2.479-4.9,3.514Q6.1,74.189,5.519,72.174C12,66.356,24.089,60.424,36.287,57.157A99.406,99.406,0,0,1,55.734,54a64.1,64.1,0,0,0,3.348,11.745l.019.048q.2.5.41.991l.023.054a42.276,42.276,0,0,0,2.341,4.672l.033.058.009.015c.049.083.1.169.145.251.1.173.211.338.317.508.068.109.136.22.2.328q.22.346.445.681.109.163.22.323c.154.224.309.445.466.662.065.091.132.179.2.268.17.229.34.458.514.68l.057.071c.342.433.692.849,1.049,1.252A8.321,8.321,0,0,1,51.809,75.6a2.6,2.6,0,0,0-4.5,2.6A13.519,13.519,0,0,0,69.36,80.144,22,22,0,0,0,72,81.819l.113.062c.239.127.48.248.723.365l.2.1q.35.165.707.318c.029.012.057.027.086.039C73.92,102.139,69.069,123.561,55.084,127.308Zm54.279-66.947c-9.079,12.144-18.742,18.833-27.208,18.833a16.175,16.175,0,0,1-4.184-.55c-.252-.068-.5-.143-.745-.222l-.022-.008C65.966,74.8,61.89,59.615,60.46,50.884c0-.019-.008-.038-.012-.057q-.039-.236-.075-.466A116.967,116.967,0,0,1,60.8,15.037c1.755-.24,4.538-.585,7.338-.781a2.6,2.6,0,1,0-.363-5.185c-2.157.151-4.275.381-5.975.592q.382-1.8.818-3.55A49.092,49.092,0,0,1,72.71,5.2,97.238,97.238,0,0,1,96.769,8.492c12.2,3.268,24.291,9.2,30.767,15.018A119.2,119.2,0,0,1,109.363,60.362Z" transform="translate(0 -0.001)"/>
          </g>
        </g>
        <g id="Group_46" data-name="Group 46" transform="translate(2030.105 3669.468)">
          <g id="Group_45" data-name="Group 45">
            <path id="Path_50" data-name="Path 50" d="M378.4,135.766a13.522,13.522,0,0,0-23.422,0,2.6,2.6,0,1,0,4.5,2.6,8.325,8.325,0,0,1,14.42,0,2.6,2.6,0,1,0,4.5-2.6Z" transform="translate(-354.634 -129.004)"/>
          </g>
        </g>
        <g id="Group_48" data-name="Group 48" transform="translate(2000.471 3660.03)">
          <g id="Group_47" data-name="Group 47">
            <path id="Path_51" data-name="Path 51" d="M255.422,94.492a13.56,13.56,0,0,0-13.523,0,2.6,2.6,0,0,0,2.6,4.5,8.326,8.326,0,0,1,12.488,7.21,2.6,2.6,0,0,0,5.2,0A13.561,13.561,0,0,0,255.422,94.492Z" transform="translate(-240.599 -92.687)"/>
          </g>
        </g>
        <g id="Group_50" data-name="Group 50" transform="translate(2009.615 3689.251)">
          <g id="Group_49" data-name="Group 49">
            <path id="Path_52" data-name="Path 52" d="M298.5,210.79a2.6,2.6,0,0,0-3.675,0,8.325,8.325,0,0,1-13.928-3.732,2.6,2.6,0,0,0-5.02,1.346,13.526,13.526,0,0,0,22.624,6.062A2.6,2.6,0,0,0,298.5,210.79Z" transform="translate(-275.789 -205.132)"/>
          </g>
        </g>
        <g id="Group_52" data-name="Group 52" transform="translate(1953.624 3714.232)">
          <g id="Group_51" data-name="Group 51">
            <path id="Path_53" data-name="Path 53" d="M79.318,301.258h0a2.6,2.6,0,0,0-2.6,2.6,8.325,8.325,0,0,1-12.488,7.21,2.6,2.6,0,0,0-2.6,4.5,13.523,13.523,0,0,0,20.284-11.711A2.6,2.6,0,0,0,79.318,301.258Z" transform="translate(-60.332 -301.258)"/>
          </g>
        </g>
        <g id="Group_54" data-name="Group 54" transform="translate(1977.269 3739.995)">
          <g id="Group_53" data-name="Group 53">
            <path id="Path_54" data-name="Path 54" d="M174.032,404.353a13.523,13.523,0,0,0-22.624,6.062,2.6,2.6,0,1,0,5.02,1.345,8.325,8.325,0,0,1,13.928-3.732,2.6,2.6,0,0,0,3.675-3.675Z" transform="translate(-151.319 -400.396)"/>
          </g>
        </g>
        <g id="Group_56" data-name="Group 56" transform="translate(2010.653 3645.045)">
          <g id="Group_55" data-name="Group 55">
            <path id="Path_55" data-name="Path 55" d="M282.95,35.083l-.194-.03A2.6,2.6,0,1,0,282,40.2l.124.019a2.6,2.6,0,1,0,.822-5.132Z" transform="translate(-279.78 -35.026)"/>
          </g>
        </g>
        <g id="Group_58" data-name="Group 58" transform="translate(1954.854 3704.507)">
          <g id="Group_57" data-name="Group 57">
            <path id="Path_56" data-name="Path 56" d="M70.243,265.519a2.6,2.6,0,0,0-3.349-1.513l-.2.076a2.6,2.6,0,1,0,1.926,4.827l.1-.041A2.6,2.6,0,0,0,70.243,265.519Z" transform="translate(-65.062 -263.837)"/>
          </g>
        </g>
      </g>
    </g>
  </g>
</svg>
