<svg xmlns="http://www.w3.org/2000/svg" width="238" height="231" viewBox="0 0 238 231">
  <g id="Ethiopian_Prime_" data-name="Ethiopian Prime " transform="translate(-1686 -1010)">
    <g id="Group_91" data-name="Group 91" transform="translate(-199 -2057)">
      <g id="Rectangle_9" data-name="Rectangle 9" transform="translate(1885 3067)" fill="none" stroke="#000" stroke-width="7">
        <rect width="238" height="231" rx="115.5" stroke="none"/>
        <rect x="3.5" y="3.5" width="231" height="224" rx="112" fill="none"/>
      </g>
      <g id="politician" transform="translate(1932 3107.361)">
        <path id="Path_61" data-name="Path 61" d="M134.883,63.385a12.633,12.633,0,0,0-12.619-12.619h-4.206v8.412h4.206a4.211,4.211,0,0,1,4.206,4.206V92.829h-8.412V77.61L84.408,60.785v-2.33a12.638,12.638,0,0,0,8.412-11.9V21.323a21.033,21.033,0,1,0-42.062,0V46.56a12.638,12.638,0,0,0,8.412,11.9v2.33L25.521,77.61V92.829H17.109V63.385a4.211,4.211,0,0,1,4.206-4.206h4.206V50.766H21.315A12.633,12.633,0,0,0,8.7,63.385V92.829H0l11.217,33.65h14.3v17.105h92.537V126.479h14.3l11.217-33.65h-8.7ZM87.622,71.8l-6.589,3.295L77.738,71.8,81.033,68.5ZM59.171,21.323a12.567,12.567,0,0,1,24.519-4.2,12.613,12.613,0,0,1-11.9,8.407H59.171Zm0,12.619H71.79a21,21,0,0,0,12.619-4.2V46.56A4.211,4.211,0,0,1,80.2,50.766H63.377a4.211,4.211,0,0,1-4.206-4.206ZM76,59.179v2.464L71.79,65.849l-4.206-4.206V59.179ZM62.547,68.5,65.841,71.8l-3.295,3.294L55.958,71.8ZM33.934,82.81,46.552,76.5l17.656,8.828,7.582-7.582,7.582,7.582L97.027,76.5l12.619,6.309V92.829H33.934Zm75.712,52.362H33.934V118.066h75.712ZM126.3,118.066h-8.241v-8.412H25.521v8.412H17.28l-5.608-16.825H131.907Z"/>
      </g>
    </g>
  </g>
</svg>
