<svg xmlns="http://www.w3.org/2000/svg" width="238" height="231" viewBox="0 0 238 231">
  <g id="Ethiopian_Attorney_" data-name="Ethiopian Attorney " transform="translate(-254 -2543)">
    <g id="Group_95" data-name="Group 95" transform="translate(-199 -1035)">
      <g id="Rectangle_9" data-name="Rectangle 9" transform="translate(453 3578)" fill="none" stroke="#000" stroke-width="7">
        <rect width="238" height="231" rx="115.5" stroke="none"/>
        <rect x="3.5" y="3.5" width="231" height="224" rx="112" fill="none"/>
      </g>
    </g>
    <g id="balance" transform="translate(301.995 2587.001)">
      <g id="Group_133" data-name="Group 133" transform="translate(0.002 -0.001)">
        <path id="Path_103" data-name="Path 103" d="M142.767,87.2l.021-.007L119.31,35.964,125,33.13l-2.131-4.266-5.551,2.765-.751-1.637a2.383,2.383,0,0,0-4.333,0l-.67,1.463A30.659,30.659,0,0,0,98.674,28.6H78.654V23.835h4.767V19.068h-4.1l1.714-6.857a9.827,9.827,0,1,0-19.067,0l1.714,6.857h-4.1v4.767h4.767V28.6H44.345a30.66,30.66,0,0,0-12.906,2.86L30.769,30a2.383,2.383,0,0,0-4.333,0l-.751,1.637-5.551-2.777L18,33.129,23.7,35.975.219,87.192A2.328,2.328,0,0,0,0,88.186,16.7,16.7,0,0,0,16.686,104.87H40.52A16.7,16.7,0,0,0,57.2,88.186a2.33,2.33,0,0,0-.238-.987L33.422,35.778a25.924,25.924,0,0,1,10.923-2.41H64.353v87.2L56.217,128.7H47.67a11.931,11.931,0,0,0-11.917,11.917A2.383,2.383,0,0,0,38.136,143h66.735a2.384,2.384,0,0,0,2.383-2.383A11.931,11.931,0,0,0,95.337,128.7H86.791l-8.137-8.137v-87.2h20.02a25.925,25.925,0,0,1,10.923,2.41L86.021,87.192a2.328,2.328,0,0,0-.217.994,16.7,16.7,0,0,0,16.684,16.684h23.834a16.7,16.7,0,0,0,16.684-16.684A2.321,2.321,0,0,0,142.767,87.2ZM40.52,100.1H16.686A11.936,11.936,0,0,1,5.007,90.569H52.2A11.936,11.936,0,0,1,40.52,100.1ZM51.107,85.8H6.1L27.992,38.037a2.354,2.354,0,0,0,1.22,0Zm16.41-79.09a5.215,5.215,0,0,1,7.975,0,5.031,5.031,0,0,1,.922,4.343l-2,8.013H68.6l-2-8.013A5.032,5.032,0,0,1,67.516,6.712ZM69.12,28.6V23.835h4.767V28.6Zm4.767,4.767v85.8H69.12v-85.8Zm21.45,100.1a7.164,7.164,0,0,1,6.743,4.767H40.927a7.164,7.164,0,0,1,6.743-4.767ZM80.05,128.7H62.957l4.767-4.767h7.56ZM113.79,38.044a1.627,1.627,0,0,0,1.206-.05L136.909,85.8H91.9ZM126.322,100.1H102.488a11.936,11.936,0,0,1-11.679-9.534H138A11.936,11.936,0,0,1,126.322,100.1Z" transform="translate(-0.002 0.001)"/>
      </g>
    </g>
  </g>
</svg>
