<svg xmlns="http://www.w3.org/2000/svg" width="238" height="231" viewBox="0 0 238 231">
  <g id="Ethiopian_Chamber_of_Commerce_" data-name="Ethiopian Chamber of Commerce " transform="translate(-1686 -3565)">
    <g id="Group_103" data-name="Group 103" transform="translate(-199 -13)">
      <g id="Rectangle_9" data-name="Rectangle 9" transform="translate(1885 3578)" fill="none" stroke="#000" stroke-width="7">
        <rect width="238" height="231" rx="115.5" stroke="none"/>
        <rect x="3.5" y="3.5" width="231" height="224" rx="112" fill="none"/>
      </g>
    </g>
    <g id="shopping-bag" transform="translate(1731.064 3605.998)">
      <g id="Group_147" data-name="Group 147" transform="translate(58.35)">
        <g id="Group_146" data-name="Group 146">
          <path id="Path_121" data-name="Path 121" d="M113.677,17.471A20.372,20.372,0,0,0,77.055,8.366a2.4,2.4,0,1,0,3.868,2.827,15.58,15.58,0,0,1,28.008,6.955,2.4,2.4,0,0,0,2.37,2.059,2.566,2.566,0,0,0,.341-.024A2.4,2.4,0,0,0,113.677,17.471Z" transform="translate(-76.593)"/>
        </g>
      </g>
      <g id="Group_149" data-name="Group 149" transform="translate(20.151 31.153)">
        <g id="Group_148" data-name="Group 148" transform="translate(0)">
          <path id="Path_122" data-name="Path 122" d="M132.08,57.518l-7.189-11.982a2.393,2.393,0,0,0-2.055-1.163h-6.89a2.4,2.4,0,0,0,0,4.792h5.533l4.314,7.189H28.813l4.314-7.189h2.538a2.4,2.4,0,0,0,0-4.792H31.771a2.393,2.393,0,0,0-2.055,1.163L22.526,57.518a2.4,2.4,0,0,0,2.055,3.63H130.025a2.4,2.4,0,0,0,2.055-3.63Z" transform="translate(-22.185 -44.372)"/>
        </g>
      </g>
      <g id="Group_151" data-name="Group 151" transform="translate(78.535 13.428)">
        <g id="Group_150" data-name="Group 150">
          <path id="Path_123" data-name="Path 123" d="M144.909,27.9a2.393,2.393,0,0,0-1.491-1.07L110.75,19.189a2.394,2.394,0,0,0-2.879,1.788l-2.464,10.531a2.4,2.4,0,0,0,4.667,1.09l1.918-8.2,28,6.55-4.4,18.812a2.394,2.394,0,0,0,1.788,2.878,2.423,2.423,0,0,0,.549.063,2.393,2.393,0,0,0,2.33-1.85l4.946-21.145A2.387,2.387,0,0,0,144.909,27.9Z" transform="translate(-105.343 -19.126)"/>
        </g>
      </g>
      <g id="Group_153" data-name="Group 153" transform="translate(29.495 7.283)">
        <g id="Group_152" data-name="Group 152" transform="translate(0)">
          <path id="Path_124" data-name="Path 124" d="M82.536,30.958,80.352,12.489a2.4,2.4,0,0,0-2.662-2.1L37.609,15.128a2.4,2.4,0,0,0-2.1,2.662l3.64,30.8a2.4,2.4,0,0,0,2.377,2.116,2.618,2.618,0,0,0,.285-.017,2.4,2.4,0,0,0,2.1-2.662L40.552,19.6,75.874,15.43l1.9,16.088a2.4,2.4,0,0,0,4.76-.561Z" transform="translate(-35.494 -10.374)"/>
        </g>
      </g>
      <g id="Group_155" data-name="Group 155" transform="translate(47.4 23.007)">
        <g id="Group_154" data-name="Group 154">
          <path id="Path_125" data-name="Path 125" d="M109.086,54.384,104.33,34.6a2.394,2.394,0,0,0-2.89-1.769L62.834,42.119a2.4,2.4,0,0,0-1.77,2.89L63.441,54.9a2.4,2.4,0,1,0,4.66-1.121l-1.818-7.557,33.946-8.162,4.2,17.45a2.4,2.4,0,0,0,4.661-1.122Z" transform="translate(-60.997 -32.769)"/>
        </g>
      </g>
      <g id="Group_157" data-name="Group 157" transform="translate(15.359 43.137)">
        <g id="Group_156" data-name="Group 156">
          <path id="Path_126" data-name="Path 126" d="M130.387,63.714a2.4,2.4,0,0,0-2.394-2.273H22.549a2.4,2.4,0,0,0-2.394,2.273l-4.793,93.461a2.4,2.4,0,0,0,2.393,2.519H132.785a2.4,2.4,0,0,0,2.4-2.519ZM20.277,154.9l4.547-88.668h100.89l4.547,88.668Z" transform="translate(-15.359 -61.441)"/>
        </g>
      </g>
      <g id="Group_159" data-name="Group 159" transform="translate(86.054 52.722)">
        <g id="Group_158" data-name="Group 158">
          <path id="Path_127" data-name="Path 127" d="M123.241,75.093a7.189,7.189,0,1,0,7.189,7.189A7.2,7.2,0,0,0,123.241,75.093Zm0,9.586a2.4,2.4,0,1,1,2.4-2.4A2.4,2.4,0,0,1,123.241,84.679Z" transform="translate(-116.052 -75.093)"/>
        </g>
      </g>
      <g id="Group_161" data-name="Group 161" transform="translate(50.107 52.722)">
        <g id="Group_160" data-name="Group 160">
          <path id="Path_128" data-name="Path 128" d="M72.041,75.093a7.189,7.189,0,1,0,7.189,7.189A7.2,7.2,0,0,0,72.041,75.093Zm0,9.586a2.4,2.4,0,1,1,2.4-2.4A2.4,2.4,0,0,1,72.041,84.679Z" transform="translate(-64.852 -75.093)"/>
        </g>
      </g>
      <g id="Group_163" data-name="Group 163" transform="translate(54.9 59.911)">
        <g id="Group_162" data-name="Group 162">
          <path id="Path_129" data-name="Path 129" d="M110.022,85.333h-.185a2.4,2.4,0,0,0-2.4,2.4,2.369,2.369,0,0,0,.185.924v12.256a15.577,15.577,0,0,1-31.154,0V87.73a2.4,2.4,0,1,0-4.792,0v13.18a20.37,20.37,0,1,0,40.739,0V87.73A2.4,2.4,0,0,0,110.022,85.333Z" transform="translate(-71.679 -85.333)"/>
        </g>
      </g>
    </g>
  </g>
</svg>
