<svg xmlns="http://www.w3.org/2000/svg" width="238" height="231" viewBox="0 0 238 231">
  <g id="FDRE_Planning_" data-name="FDRE Planning &amp;" transform="translate(-968 -4587)">
    <g id="Group_101" data-name="Group 101" transform="translate(-199 1009)">
      <g id="Rectangle_9" data-name="Rectangle 9" transform="translate(1167 3578)" fill="none" stroke="#000" stroke-width="7">
        <rect width="238" height="231" rx="115.5" stroke="none"/>
        <rect x="3.5" y="3.5" width="231" height="224" rx="112" fill="none"/>
      </g>
    </g>
    <g id="plan" transform="translate(1023 4600.034)">
      <path id="Path_139" data-name="Path 139" d="M112.876,67.246V60.4a3.012,3.012,0,0,0-2.99-2.99h-6.147a3,3,0,0,0-2.99,2.99v6.848h12.127Zm-77.44,33.293a1.852,1.852,0,0,1,2.619-2.619l1.688,1.688,4.684-4.691a1.854,1.854,0,1,1,2.619,2.626l-5.993,5.994a1.855,1.855,0,0,1-2.619,0Zm69.521-21.376a1.852,1.852,0,1,1,3.7,0v38.881a1.852,1.852,0,1,1-3.7,0Zm-29.2,62.68h11.4V133.9h-11.4ZM89,145.546H28.581a1.859,1.859,0,0,1-1.856-1.856V132.04a1.852,1.852,0,0,1,1.856-1.848H41.836V119.632a1.846,1.846,0,0,1,1.848-1.848h15.11a1.847,1.847,0,0,1,1.849,1.848v3.291H73.9a1.859,1.859,0,0,1,1.855,1.856v5.412H89a1.853,1.853,0,0,1,1.855,1.848V143.69A1.858,1.858,0,0,1,89,145.546Zm-28.357-3.7h11.4V126.634h-11.4Zm-15.1,0h11.4V121.488H45.54Zm-15.11,0H41.836V133.9H30.43ZM22.616,77.307H97.038V60.4a6.718,6.718,0,0,1,6.7-6.694h6.147A6.718,6.718,0,0,1,116.58,60.4V77.307h8.038a1.852,1.852,0,0,1,1.848,1.856v72.629a1.847,1.847,0,0,1-1.848,1.849H73.33a1.852,1.852,0,0,1,0-3.7h49.433V81.011H116.58V94.406a1.852,1.852,0,1,1-3.7,0V70.95H100.749v55.307h12.127V102.8a1.852,1.852,0,1,1,3.7,0v25.3a1.966,1.966,0,0,1-.315,1.05l-7.8,15.362a1.883,1.883,0,0,1-.826.826,1.844,1.844,0,0,1-2.479-.819l-7.828-15.4a1.971,1.971,0,0,1-.294-1.015V81.011H22.616V95.029a1.852,1.852,0,1,1-3.7,0V58.907a9.826,9.826,0,0,0-5.258-1.5A9.945,9.945,0,0,0,3.7,67.358V130.64c.1-.105.2-.21.294-.308a13.616,13.616,0,0,1,9.656-4,13.826,13.826,0,0,1,4.341.707c.308.1.616.224.917.35V103.424a1.852,1.852,0,1,1,3.7,0V130.57a1.853,1.853,0,0,1-2.969,1.47,9.7,9.7,0,0,0-2.829-1.491,9.952,9.952,0,1,0-3.165,19.388H64.942a1.852,1.852,0,0,1,0,3.7H13.653A13.65,13.65,0,0,1,0,139.987V67.358A13.653,13.653,0,0,1,21.789,56.393a1.866,1.866,0,0,1,.826,1.547V77.307Zm89.1,52.653H101.9l4.908,9.655ZM86.956,88.531a1.852,1.852,0,0,1,0,3.7H61.882a1.852,1.852,0,0,1,0-3.7ZM76.53,106.217a1.852,1.852,0,1,1,0,3.7H61.882a1.852,1.852,0,0,1,0-3.7Zm10.426-8.843a1.852,1.852,0,0,1,0,3.7H61.882a1.852,1.852,0,0,1,0-3.7ZM30.633,86.76H51.855A1.852,1.852,0,0,1,53.7,88.615v21.222a1.853,1.853,0,0,1-1.848,1.855H30.633a1.854,1.854,0,0,1-1.856-1.855V88.615A1.854,1.854,0,0,1,30.633,86.76ZM50,90.471H32.481v17.518H50Z" transform="translate(0 0)"/>
    </g>
  </g>
</svg>
