<svg xmlns="http://www.w3.org/2000/svg" width="238" height="231" viewBox="0 0 238 231">
  <g id="Housing_Development_" data-name="Housing Development " transform="translate(-254 -4076)">
    <g id="Group_107" data-name="Group 107" transform="translate(-199 1009)">
      <g id="Rectangle_9" data-name="Rectangle 9" transform="translate(453 3067)" fill="none" stroke="#000" stroke-width="7">
        <rect width="238" height="231" rx="115.5" stroke="none"/>
        <rect x="3.5" y="3.5" width="231" height="224" rx="112" fill="none"/>
      </g>
    </g>
    <g id="real-estate-agency" transform="translate(310 4101.229)">
      <circle id="Ellipse_15" data-name="Ellipse 15" cx="2.851" cy="2.851" r="2.851" transform="translate(84.031 126.628) rotate(-5.682)"/>
      <circle id="Ellipse_16" data-name="Ellipse 16" cx="2.851" cy="2.851" r="2.851" transform="translate(118.105 104.651) rotate(-67.486)"/>
      <path id="Path_130" data-name="Path 130" d="M134.532,59.816H108.985A11.452,11.452,0,0,0,97.546,71.255V79.98H89.873V51.618h3.491a2.883,2.883,0,0,0,2.373-4.448L84.15,29.9a2.857,2.857,0,0,0-2.373-1.266H14.431A2.857,2.857,0,0,0,12.059,29.9L.472,47.17a2.883,2.883,0,0,0,2.373,4.448H6.336v103.8a2.857,2.857,0,0,0,2.857,2.857H87.016a2.857,2.857,0,0,0,2.857-2.857V142.1a2.857,2.857,0,0,0-5.713,0v10.461H67.36V129.928a2.857,2.857,0,0,0-2.857-2.857h-32.8a2.857,2.857,0,0,0-2.857,2.857v22.635h-16.8V51.618H84.16v64.943a2.857,2.857,0,0,0,5.713,0V85.694h7.673V94.42a11.453,11.453,0,0,0,11.125,11.435,2.92,2.92,0,0,0,3.163-2.629,2.885,2.885,0,0,0-2.848-3.08,5.732,5.732,0,0,1-5.725-5.725V71.255a5.732,5.732,0,0,1,5.725-5.726h25.547a5.732,5.732,0,0,1,5.725,5.726V94.42a5.732,5.732,0,0,1-5.725,5.725,2.885,2.885,0,0,0-2.838,3.19,2.933,2.933,0,0,0,3.214,2.517A11.453,11.453,0,0,0,145.971,94.42V71.255a11.452,11.452,0,0,0-11.439-11.439Zm-99.969,72.97H61.646v19.778H50.961V141.449a2.857,2.857,0,1,0-5.713,0v11.115H34.563V132.785ZM8.2,45.9l7.754-11.559h64.3L88.008,45.9Z" transform="translate(0)"/>
      <path id="Path_131" data-name="Path 131" d="M121.447,131.7a2.857,2.857,0,0,0-2.857-2.857H61.577A2.857,2.857,0,0,0,58.72,131.7v17.119a2.857,2.857,0,0,0,2.857,2.857H118.59a2.857,2.857,0,0,0,2.857-2.857Zm-57.014,2.857H87.227v11.406H64.433Zm51.3,11.406H92.941V134.557h22.793Z" transform="translate(-41.979 -71.641)"/>
      <path id="Path_132" data-name="Path 132" d="M407.294,191.421a2.856,2.856,0,0,0-.46-4.014l-9.858-7.831a2.858,2.858,0,0,0-3.554,0l-9.858,7.831a2.856,2.856,0,0,0,2.375,5.029v6.36a2.857,2.857,0,0,0,2.857,2.857H401.6a2.857,2.857,0,0,0,2.857-2.858v-6.361A2.853,2.853,0,0,0,407.294,191.421Zm-15.641,4.518v-7.66l3.546-2.817,3.544,2.815,0,7.662h-7.092Z" transform="translate(-273.44 -107.467)"/>
      <path id="Path_133" data-name="Path 133" d="M118.59,229.184H61.577a2.857,2.857,0,0,0-2.857,2.857V249.16a2.857,2.857,0,0,0,2.857,2.857H118.59a2.857,2.857,0,0,0,2.857-2.857V232.041A2.857,2.857,0,0,0,118.59,229.184ZM64.433,234.9H87.227V246.3H64.433Zm51.3,11.406H92.94V234.9h22.793Z" transform="translate(-41.979 -143.375)"/>
    </g>
  </g>
</svg>
