<svg xmlns="http://www.w3.org/2000/svg" width="238" height="231" viewBox="0 0 238 231">
  <g id="Group_201" data-name="Group 201" transform="translate(-968 -1010)">
    <g id="Group_92" data-name="Group 92" transform="translate(-199 -2057)">
      <g id="Rectangle_9" data-name="Rectangle 9" transform="translate(1167 3067)" fill="none" stroke="#000032" stroke-width="7">
        <rect width="238" height="231" rx="115.5" stroke="none"/>
        <rect x="3.5" y="3.5" width="231" height="224" rx="112" fill="none"/>
      </g>
      <g id="representative" transform="translate(1230.021 3123.488)">
        <path id="Path_62" data-name="Path 62" d="M315.737,329.512l-3.206-1.079a3.335,3.335,0,0,1-1.357-.861,3.371,3.371,0,0,1-.937-2.343v-3.441l1.078-.657a6.523,6.523,0,0,0,3.109-5.539V304.936a7.19,7.19,0,0,0-7.178-7.186h-6.558a7.19,7.19,0,0,0-7.179,7.186v10.656a6.523,6.523,0,0,0,3.109,5.539l1.079.658v3.44a3.405,3.405,0,0,1-1.076,2.482,3.345,3.345,0,0,1-1.22.723l-3.2,1.078a11.79,11.79,0,0,0-2.536,1.21,14.138,14.138,0,0,0-2.87-3.111,1.881,1.881,0,1,0-2.346,2.94,10.383,10.383,0,0,1,2.946,3.77,10.237,10.237,0,0,1,.933,4.287v10.983a1.881,1.881,0,0,0,3.761,0V338.608a13.964,13.964,0,0,0-.737-4.494,7.965,7.965,0,0,1,2.048-1.038L296.6,332a7.134,7.134,0,0,0,1.665-.814,18.385,18.385,0,0,0,3.054.643l-3.293,11.638a1.882,1.882,0,0,0,.409,1.767l3.923,4.374a1.882,1.882,0,0,0,1.353.624h.047a1.881,1.881,0,0,0,1.336-.556l4.337-4.374a1.879,1.879,0,0,0,.46-1.885l-3.645-11.646a18.523,18.523,0,0,0,3.172-.756,7.119,7.119,0,0,0,1.914.985l3.2,1.077a8,8,0,0,1,5.45,7.594v8.921a1.881,1.881,0,1,0,3.761,0V340.67a11.761,11.761,0,0,0-8.01-11.158Zm-11.845-1.31a14.7,14.7,0,0,1-2.98-.243,7.145,7.145,0,0,0,.547-2.731V324a6.414,6.414,0,0,0,5.017,0v1.233a7.179,7.179,0,0,0,.479,2.58A14.711,14.711,0,0,1,303.892,328.2Zm-3.2-26.691h6.557a3.425,3.425,0,0,1,3.417,3.425V307.3l-8.919-2.871a1.878,1.878,0,0,0-1.447.123l-3.027,1.58v-1.2a3.425,3.425,0,0,1,3.417-3.425Zm-3.417,8.869,4.07-2.125,9.323,3v4.336a2.738,2.738,0,0,1-1.306,2.327l-3.979,2.426a2.7,2.7,0,0,1-2.824,0l-3.979-2.426a2.74,2.74,0,0,1-1.306-2.327Zm6.558,35.23-1.9-2.118,1.922-6.794,2.115,6.757Zm0,0" transform="translate(-212.593 -223.092)" fill="#000032"/>
        <path id="Path_63" data-name="Path 63" d="M67,289.792l-1.018-.343a4.575,4.575,0,0,1-3.12-4.354v-4.481l1.536-.936a7.6,7.6,0,0,0,3.619-6.449V260.112a8.418,8.418,0,0,0-8.4-8.413H51.54a8.418,8.418,0,0,0-8.4,8.413V273.23a7.6,7.6,0,0,0,3.619,6.449l1.538.937v4.48a4.627,4.627,0,0,1-1.467,3.373,4.542,4.542,0,0,1-1.659.983l-3.94,1.328a14.1,14.1,0,0,0-7.141,5.437,11.717,11.717,0,0,0-2.536-1.21l-3.206-1.079a3.3,3.3,0,0,1-1.358-.862,3.37,3.37,0,0,1-.936-2.342v-3.441l1.078-.657a6.524,6.524,0,0,0,3.109-5.539V270.432a7.19,7.19,0,0,0-7.178-7.186H16.5a7.19,7.19,0,0,0-7.178,7.186v10.656a6.524,6.524,0,0,0,3.11,5.539l1.078.658v3.44a3.408,3.408,0,0,1-1.076,2.482,3.362,3.362,0,0,1-1.22.723l-3.2,1.078A11.761,11.761,0,0,0,0,306.166v8.921a1.881,1.881,0,0,0,3.761,0v-8.921a8,8,0,0,1,5.45-7.594l3.2-1.077a7.126,7.126,0,0,0,1.666-.814,18.368,18.368,0,0,0,3.054.643L13.84,308.961a1.882,1.882,0,0,0,.409,1.767l3.923,4.374a1.882,1.882,0,0,0,1.353.624h.047a1.881,1.881,0,0,0,1.336-.556l4.337-4.374a1.879,1.879,0,0,0,.46-1.885l-3.644-11.647a18.561,18.561,0,0,0,3.172-.755,7.113,7.113,0,0,0,1.913.984l3.2,1.078a7.947,7.947,0,0,1,2.047,1.038,13.981,13.981,0,0,0-.736,4.494v10.983a1.881,1.881,0,0,0,3.761,0V304.1a10.292,10.292,0,0,1,7-9.759l3.938-1.328a8.265,8.265,0,0,0,2.116-1.065,22.252,22.252,0,0,0,4.395.889l-4.193,14.822a1.881,1.881,0,0,0,.409,1.767l4.83,5.385a1.88,1.88,0,0,0,1.353.624h.047a1.881,1.881,0,0,0,1.335-.556L62,309.5a1.883,1.883,0,0,0,.459-1.886l-4.64-14.829a22.4,22.4,0,0,0,4.558-1.053,8.314,8.314,0,0,0,2.409,1.284l1.012.341a1.881,1.881,0,0,0,1.2-3.564ZM19.7,293.7a14.693,14.693,0,0,1-2.979-.243,7.162,7.162,0,0,0,.546-2.731v-1.233a6.412,6.412,0,0,0,5.018,0v1.233a7.162,7.162,0,0,0,.479,2.58,14.723,14.723,0,0,1-3.064.394Zm-3.2-26.691h6.559a3.425,3.425,0,0,1,3.417,3.425V272.8l-8.92-2.871a1.878,1.878,0,0,0-1.447.123l-3.027,1.58v-1.2a3.425,3.425,0,0,1,3.417-3.425Zm-3.417,8.869,4.071-2.125,9.323,3v4.336a2.741,2.741,0,0,1-1.306,2.327l-3.979,2.426a2.7,2.7,0,0,1-2.824,0l-3.98-2.426a2.742,2.742,0,0,1-1.306-2.327Zm6.559,35.23-1.9-2.118,1.922-6.794,2.115,6.757ZM55.494,289.19a18.523,18.523,0,0,1-4.3-.409,8.383,8.383,0,0,0,.858-3.685V282.89a7.485,7.485,0,0,0,7.046,0V285.1a8.372,8.372,0,0,0,.75,3.475,18.536,18.536,0,0,1-4.357.619ZM51.54,255.46h8.074a4.652,4.652,0,0,1,4.642,4.651v3.512l-11.549-3.717a1.874,1.874,0,0,0-1.447.123L46.9,262.308v-2.2a4.652,4.652,0,0,1,4.642-4.651ZM46.9,273.23v-6.679l5.4-2.823,11.952,3.847v5.654a3.814,3.814,0,0,1-1.815,3.237l-4.9,2.986a3.762,3.762,0,0,1-3.929,0l-4.9-2.986A3.812,3.812,0,0,1,46.9,273.23Zm8.493,37.591-2.807-3.129,2.829-10,3.117,9.962Zm0,0" transform="translate(0 -188.588)" fill="#000032"/>
        <path id="Path_64" data-name="Path 64" d="M129.689,41.893V8.226A8.235,8.235,0,0,0,121.464,0H45.406A8.236,8.236,0,0,0,37.18,8.226v5.439a1.881,1.881,0,0,0,3.761,0V8.226a4.47,4.47,0,0,1,4.465-4.465h76.057a4.47,4.47,0,0,1,4.464,4.465V41.893a4.47,4.47,0,0,1-4.464,4.465H96.182a4.651,4.651,0,0,0-4.272,2.789,9.24,9.24,0,0,1-16.948,0,4.651,4.651,0,0,0-4.273-2.789H45.406a4.47,4.47,0,0,1-4.465-4.465V22.065a1.881,1.881,0,0,0-3.761,0V41.893a8.236,8.236,0,0,0,8.227,8.227H70.688a.891.891,0,0,1,.824.527,13,13,0,0,0,10.042,7.681v.93a1.881,1.881,0,1,0,3.761,0v-.93a13,13,0,0,0,10.042-7.681.893.893,0,0,1,.824-.527h25.282a8.235,8.235,0,0,0,8.226-8.227Zm0,0" transform="translate(-27.857)" fill="#000032"/>
        <path id="Path_65" data-name="Path 65" d="M101.569,55.261h57.4a1.881,1.881,0,1,0,0-3.761h-57.4a1.881,1.881,0,1,0,0,3.761Zm0,0" transform="translate(-74.692 -38.587)" fill="#000032"/>
        <path id="Path_66" data-name="Path 66" d="M101.569,96.929h57.4a1.881,1.881,0,1,0,0-3.761h-57.4a1.881,1.881,0,1,0,0,3.761Zm0,0" transform="translate(-74.692 -69.807)" fill="#000032"/>
        <path id="Path_67" data-name="Path 67" d="M155.408,134.832a1.881,1.881,0,1,0,0,3.761h30.4a1.881,1.881,0,1,0,0-3.761Zm0,0" transform="translate(-115.031 -101.024)" fill="#000032"/>
      </g>
    </g>
  </g>
</svg>
