<svg xmlns="http://www.w3.org/2000/svg" width="238" height="231" viewBox="0 0 238 231">
  <g id="Land_Development_" data-name="Land Development " transform="translate(-1686 -2543)">
    <g id="Group_93" data-name="Group 93" transform="translate(-199 -1035)">
      <g id="Rectangle_9" data-name="Rectangle 9" transform="translate(1885 3578)" fill="none" stroke="#000" stroke-width="7">
        <rect width="238" height="231" rx="115.5" stroke="none"/>
        <rect x="3.5" y="3.5" width="231" height="224" rx="112" fill="none"/>
      </g>
    </g>
    <g id="mecca" transform="translate(1704.31 2599.396)">
      <g id="Group_134" data-name="Group 134" transform="translate(49.879)">
        <path id="Path_110" data-name="Path 110" d="M134.923,42.524a42.324,42.324,0,0,0-28.417,10.927,1.95,1.95,0,0,0,2.614,2.895,38.471,38.471,0,1,1-5.68,6.4,1.95,1.95,0,1,0-3.186-2.25,42.416,42.416,0,1,0,34.669-17.975Z" transform="translate(-81.425 -31.467)"/>
        <path id="Path_111" data-name="Path 111" d="M211.627,145.07a1.95,1.95,0,0,0,1.95-1.95V117.4a2.668,2.668,0,0,0-2.665-2.665H170.686a2.668,2.668,0,0,0-2.665,2.665V159.34a2.668,2.668,0,0,0,2.665,2.665h40.225a2.668,2.668,0,0,0,2.665-2.665v-7.113a1.95,1.95,0,1,0-3.9,0v5.878H192.749v-16.5a2.622,2.622,0,0,0-2.619-2.619H179.937a2.622,2.622,0,0,0-2.619,2.619v16.5h-5.4V135.543h37.755v7.577A1.95,1.95,0,0,0,211.627,145.07Zm-30.409-2.183h7.631v15.219h-7.631Zm-9.3-24.254h37.755v4.642H171.921Zm0,13.011v-4.468h37.755v4.468Z" transform="translate(-137.301 -84.899)"/>
        <path id="Path_112" data-name="Path 112" d="M103.4,0h-.055A53.531,53.531,0,0,0,49.879,53.471c0,22,14.9,40.447,28.858,56.008,5.362,5.976,14.722,15.949,19.824,21.362a6.612,6.612,0,0,0,4.845,2.1h.01a6.711,6.711,0,0,0,4.85-2.085c7.167-7.556,13.628-14.547,19.752-21.372,13.962-15.561,28.858-34.005,28.858-56.008A53.53,53.53,0,0,0,103.4,0Zm21.71,106.874c-6.1,6.8-12.536,13.764-19.679,21.293a2.758,2.758,0,0,1-2.02.869h0a2.745,2.745,0,0,1-2.013-.871c-5.09-5.4-14.425-15.346-19.759-21.291C68.16,91.851,53.779,74.1,53.779,53.471A49.626,49.626,0,0,1,103.349,3.9h.055a49.626,49.626,0,0,1,49.57,49.57C152.975,74.1,138.594,91.851,125.115,106.874Z" transform="translate(-49.879)"/>
      </g>
    </g>
  </g>
</svg>
