<svg xmlns="http://www.w3.org/2000/svg" width="238" height="231" viewBox="0 0 238 231">
  <g id="Ministry_of_Revenues" data-name="Ministry of Revenues" transform="translate(-1686 -4587)">
    <g id="Group_99" data-name="Group 99" transform="translate(-199 1009)">
      <g id="Rectangle_9" data-name="Rectangle 9" transform="translate(1885 3578)" fill="none" stroke="#000" stroke-width="7">
        <rect width="238" height="231" rx="115.5" stroke="none"/>
        <rect x="3.5" y="3.5" width="231" height="224" rx="112" fill="none"/>
      </g>
    </g>
    <g id="tax" transform="translate(1731.017 4638.307)">
      <path id="Path_140" data-name="Path 140" d="M270.243,139.841a1.97,1.97,0,0,0,2.632-.5L295.641,106.3a1.849,1.849,0,0,0-.5-2.593,1.912,1.912,0,0,0-2.632.5L269.74,137.248A1.85,1.85,0,0,0,270.243,139.841Z" transform="translate(-190.151 -77.648)"/>
      <path id="Path_141" data-name="Path 141" d="M349.623,199c3.943,0,7.151-3.885,7.151-8.661-.4-11.494-13.9-11.491-14.3,0C342.472,195.12,345.68,199,349.623,199Zm0-13.587c1.822,0,3.362,2.256,3.362,4.927s-1.539,4.927-3.362,4.927-3.362-2.256-3.362-4.927S347.8,185.418,349.623,185.418Z" transform="translate(-244.753 -136.489)"/>
      <path id="Path_142" data-name="Path 142" d="M258.135,112.044c0-4.776-3.208-8.661-7.151-8.661-9.484.462-9.48,16.862,0,17.321C254.927,120.7,258.135,116.819,258.135,112.044Zm-10.513,0c0-2.671,1.54-4.927,3.362-4.927s3.362,2.256,3.362,4.927-1.539,4.927-3.362,4.927S247.622,114.714,247.622,112.044Z" transform="translate(-171.063 -77.649)"/>
      <path id="Path_143" data-name="Path 143" d="M78.942,86.112c46.5,13.658,78.7-43.707,42.488-75.4a1.914,1.914,0,0,0-2.672.2,1.848,1.848,0,0,0,.2,2.633c33.615,29.5,2.779,82.522-40.014,68.635V69.491c0-1.6-.983-3.853-5.664-5.5A37.176,37.176,0,0,0,56.2,62.723C38.335,28.358,74.9-8.865,110.244,7.881a1.908,1.908,0,0,0,2.534-.858,1.855,1.855,0,0,0-.87-2.5C73.786-13.577,33.96,26,52.357,63.491c-.566.153-1.111.319-1.625.5-4.681,1.647-5.664,3.9-5.664,5.5V81.918c-3.853-1.8-8.009-2.372-13.124-2.441a1.867,1.867,0,1,0,0,3.734,31.326,31.326,0,0,1,9.985,1.443c2.6.914,3.142,1.837,3.142,1.981s-.547,1.068-3.148,1.983a32.219,32.219,0,0,1-20,0c-2.6-.915-3.148-1.839-3.148-1.983,0-.169.665-1.233,3.825-2.2a1.869,1.869,0,1,0-1.128-3.565c-5.362,1.647-6.487,4.046-6.487,5.768v33.751c0,1.6.983,3.853,5.664,5.5a36.072,36.072,0,0,0,22.547,0,12.42,12.42,0,0,0,3.769-1.977,12.42,12.42,0,0,0,3.769,1.977,36.073,36.073,0,0,0,22.547,0,12.42,12.42,0,0,0,3.769-1.977,12.42,12.42,0,0,0,3.769,1.977,36.072,36.072,0,0,0,22.547,0c4.681-1.647,5.664-3.9,5.664-5.5V103.51c0-1.6-.983-3.853-5.664-5.5a36.072,36.072,0,0,0-22.547,0,16.571,16.571,0,0,0-1.874.783c0-2.434,0-9.657,0-12.2,0-.067,0-.412,0-.485Zm26.3,25.836c0,.144-.547,1.068-3.148,1.983a32.219,32.219,0,0,1-20,0c-2.6-.915-3.148-1.839-3.148-1.983v-3.721a16.616,16.616,0,0,0,1.874.783,36.072,36.072,0,0,0,22.547,0,16.567,16.567,0,0,0,1.874-.783ZM75.152,77.929c0,.144-.547,1.068-3.148,1.983a32.218,32.218,0,0,1-20,0c-2.6-.915-3.148-1.839-3.148-1.983V74.208a16.617,16.617,0,0,0,1.874.783,36.072,36.072,0,0,0,22.547,0,16.571,16.571,0,0,0,1.874-.783Zm-24.421,5.5c7.5,2.575,17.169,2.5,24.421-.782V86.5c0,.144-.547,1.068-3.148,1.983a32.221,32.221,0,0,1-20,0c-2.6-.915-3.148-1.839-3.148-1.983V82.646A16.6,16.6,0,0,0,50.731,83.428ZM45.067,103.51c0,.144-.547,1.068-3.148,1.983a32.219,32.219,0,0,1-20,0c-2.6-.915-3.148-1.839-3.148-1.983V99.79a16.617,16.617,0,0,0,1.874.783,36.072,36.072,0,0,0,22.547,0,16.571,16.571,0,0,0,1.874-.783Zm-26.3,4.717a16.621,16.621,0,0,0,1.874.783,36.072,36.072,0,0,0,22.547,0,16.573,16.573,0,0,0,1.874-.783v3.721c0,.144-.547,1.068-3.148,1.983a32.219,32.219,0,0,1-20,0c-2.6-.915-3.148-1.839-3.148-1.983Zm30.085,0a16.621,16.621,0,0,0,1.874.783,36.073,36.073,0,0,0,22.547,0,16.574,16.574,0,0,0,1.874-.783v3.721c0,.144-.547,1.068-3.148,1.983a32.218,32.218,0,0,1-20,0c-2.6-.915-3.148-1.839-3.148-1.983ZM72,105.493a32.221,32.221,0,0,1-20,0c-2.6-.915-3.148-1.839-3.148-1.983V99.79a16.617,16.617,0,0,0,1.874.783,36.073,36.073,0,0,0,22.547,0,16.571,16.571,0,0,0,1.874-.783v3.721C75.152,103.654,74.605,104.579,72,105.493Zm3.148-10.421c0,.144-.547,1.068-3.148,1.983a32.221,32.221,0,0,1-20,0c-2.6-.915-3.148-1.839-3.148-1.983V91.218A16.617,16.617,0,0,0,50.731,92a36.072,36.072,0,0,0,22.547,0,16.569,16.569,0,0,0,1.874-.783ZM52.005,67.508a32.23,32.23,0,0,1,20,0c2.6.915,3.148,1.839,3.148,1.983S74.605,70.559,72,71.474a32.221,32.221,0,0,1-20,0c-2.6-.915-3.148-1.839-3.148-1.983S49.4,68.423,52.005,67.508ZM20.646,92.134c7.5,2.575,17.169,2.5,24.421-.782v3.721c0,.144-.547,1.068-3.148,1.983a32.219,32.219,0,0,1-20,0c-2.6-.915-3.148-1.839-3.148-1.983V91.352A16.579,16.579,0,0,0,20.646,92.134Zm21.273,30.235a32.219,32.219,0,0,1-20,0c-2.6-.915-3.148-1.839-3.148-1.983v-3.721a34.335,34.335,0,0,0,26.3,0v3.721C45.067,120.53,44.52,121.454,41.919,122.369Zm30.085,0a32.221,32.221,0,0,1-20,0c-2.6-.915-3.148-1.839-3.148-1.983v-3.721a34.336,34.336,0,0,0,26.3,0v3.721C75.152,120.53,74.605,121.454,72,122.369Zm30.085,0a32.219,32.219,0,0,1-20,0c-2.6-.915-3.148-1.839-3.148-1.983v-3.721a34.335,34.335,0,0,0,26.3,0v3.721C105.237,120.53,104.69,121.454,102.089,122.369Zm-20-20.842a32.219,32.219,0,0,1,20,0c2.6.915,3.148,1.839,3.148,1.983s-.547,1.068-3.148,1.983a32.219,32.219,0,0,1-20,0c-2.6-.915-3.148-1.839-3.148-1.983S79.489,102.442,82.09,101.527Z" transform="translate(0 0)"/>
    </g>
  </g>
</svg>
