<svg xmlns="http://www.w3.org/2000/svg" width="238" height="231" viewBox="0 0 238 231">
  <g id="Ministry_of_Education" data-name="Ministry of Education" transform="translate(-968 -2032)">
    <g id="Group_98" data-name="Group 98" transform="translate(-199 -1035)">
      <g id="Rectangle_9" data-name="Rectangle 9" transform="translate(1167 3067)" fill="none" stroke="#000" stroke-width="7">
        <rect width="238" height="231" rx="115.5" stroke="none"/>
        <rect x="3.5" y="3.5" width="231" height="224" rx="112" fill="none"/>
      </g>
    </g>
    <g id="open-book" transform="translate(1027.292 2082.476)">
      <g id="Group_130" data-name="Group 130" transform="translate(0.002 0)">
        <g id="Group_129" data-name="Group 129">
          <path id="Path_87" data-name="Path 87" d="M290.346,207.132a1.995,1.995,0,0,0,2.681.871c.117-.06,11.843-6.016,17.626-7.843a1.993,1.993,0,0,0-1.2-3.8c-6.092,1.926-17.738,7.843-18.232,8.094A1.993,1.993,0,0,0,290.346,207.132Z" transform="translate(-222.399 -150.447)"/>
          <path id="Path_88" data-name="Path 88" d="M292.125,105.821a1.988,1.988,0,0,0,.9-.217c.117-.06,11.843-6.016,17.626-7.843a1.993,1.993,0,0,0-1.2-3.8c-6.092,1.926-17.738,7.843-18.232,8.094a1.991,1.991,0,0,0,.906,3.767Z" transform="translate(-222.399 -71.954)"/>
          <path id="Path_89" data-name="Path 89" d="M117.538,29.883a1.991,1.991,0,0,0-1.992,1.992v77.693a5.984,5.984,0,0,1-5.976,5.976H61.758V110.96c2.9-1.016,10.471-3.385,17.929-3.385,17.353,0,29.137,3.843,29.254,3.883a1.992,1.992,0,0,0,2.62-1.891V21.914A1.989,1.989,0,0,0,110,19.97s-1.562-.349-4.231-.839a1.992,1.992,0,0,0-.721,3.919c1.018.187,1.871.353,2.528.484V106.92a112.5,112.5,0,0,0-27.89-3.329c-8.68,0-17.206,2.851-19.844,3.817a46.669,46.669,0,0,0-18.007-3.817A134.245,134.245,0,0,0,11.955,107V23.456a131.127,131.127,0,0,1,29.882-3.534,43.192,43.192,0,0,1,15.937,3.283V101.6a1.992,1.992,0,0,0,3.018,1.707c.2-.117,19.935-11.907,37.454-17.746a1.992,1.992,0,0,0,1.363-1.891V1.993A1.995,1.995,0,0,0,96.915.126C80.976,6.1,64.848,16.141,64.686,16.241A1.992,1.992,0,1,0,66.8,19.62,212.924,212.924,0,0,1,95.624,4.906V82.244c-13.6,4.725-27.8,12.441-33.866,15.9V21.914a1.994,1.994,0,0,0-1.1-1.783,46.129,46.129,0,0,0-18.82-4.194A129.294,129.294,0,0,0,9.415,20,1.991,1.991,0,0,0,7.97,21.914v87.654a1.991,1.991,0,0,0,1.992,1.992,1.963,1.963,0,0,0,.546-.078,127.968,127.968,0,0,1,31.328-3.907,43.1,43.1,0,0,1,15.937,3.285v4.684H9.962a5.984,5.984,0,0,1-5.976-5.976V31.875a1.992,1.992,0,1,0-3.984,0v77.693a9.972,9.972,0,0,0,9.961,9.961h99.607a9.972,9.972,0,0,0,9.961-9.961V31.875A1.992,1.992,0,0,0,117.538,29.883Z" transform="translate(-0.002 0)"/>
          <path id="Path_90" data-name="Path 90" d="M290.346,155.932a1.995,1.995,0,0,0,2.681.871c.117-.06,11.843-6.016,17.626-7.843a1.993,1.993,0,0,0-1.2-3.8c-6.092,1.926-17.738,7.843-18.232,8.094A1.993,1.993,0,0,0,290.346,155.932Z" transform="translate(-222.399 -111.2)"/>
          <path id="Path_91" data-name="Path 91" d="M290.346,258.332a1.995,1.995,0,0,0,2.681.871c.117-.06,11.843-6.016,17.626-7.843a1.993,1.993,0,0,0-1.2-3.8c-6.092,1.926-17.738,7.843-18.232,8.094A1.993,1.993,0,0,0,290.346,258.332Z" transform="translate(-222.399 -189.695)"/>
          <path id="Path_92" data-name="Path 92" d="M113.678,154.747c-12.3-2.887-26.28.791-26.868.948a1.992,1.992,0,0,0,.514,3.916,2.026,2.026,0,0,0,.518-.068c.134-.038,13.592-3.578,24.928-.918a1.992,1.992,0,1,0,.908-3.879Z" transform="translate(-65.412 -117.776)"/>
          <path id="Path_93" data-name="Path 93" d="M113.678,205.95c-12.3-2.885-26.28.791-26.868.948a1.992,1.992,0,0,0,.514,3.916,2.025,2.025,0,0,0,.518-.068c.134-.038,13.592-3.578,24.928-.918a1.992,1.992,0,1,0,.908-3.879Z" transform="translate(-65.412 -157.026)"/>
          <path id="Path_94" data-name="Path 94" d="M290.346,309.532a1.995,1.995,0,0,0,2.681.871c.117-.06,11.843-6.016,17.626-7.843a1.993,1.993,0,0,0-1.2-3.8c-6.092,1.926-17.738,7.843-18.232,8.094A1.993,1.993,0,0,0,290.346,309.532Z" transform="translate(-222.399 -228.942)"/>
          <path id="Path_95" data-name="Path 95" d="M113.678,257.149c-12.3-2.885-26.28.789-26.868.948a1.993,1.993,0,0,0,.514,3.918,2.02,2.02,0,0,0,.518-.07c.134-.038,13.592-3.578,24.928-.918a1.992,1.992,0,1,0,.908-3.879Z" transform="translate(-65.412 -196.272)"/>
          <path id="Path_96" data-name="Path 96" d="M113.678,359.547c-12.3-2.887-26.28.791-26.868.948a1.993,1.993,0,0,0,.514,3.919,2.019,2.019,0,0,0,.518-.07c.134-.038,13.592-3.578,24.928-.918a1.992,1.992,0,1,0,.908-3.879Z" transform="translate(-65.412 -274.765)"/>
          <path id="Path_97" data-name="Path 97" d="M113.678,308.346c-12.3-2.887-26.28.789-26.868.948a1.993,1.993,0,0,0,.514,3.919,2.018,2.018,0,0,0,.518-.07c.134-.038,13.592-3.578,24.928-.918a1.992,1.992,0,1,0,.908-3.879Z" transform="translate(-65.412 -235.516)"/>
        </g>
      </g>
    </g>
  </g>
</svg>
