<svg xmlns="http://www.w3.org/2000/svg" width="238" height="231" viewBox="0 0 238 231">
  <g id="Ministry_of_Women_" data-name="Ministry of Women " transform="translate(-968 -3565)">
    <g id="Group_104" data-name="Group 104" transform="translate(-199 -13)">
      <g id="Rectangle_9" data-name="Rectangle 9" transform="translate(1167 3578)" fill="none" stroke="#000" stroke-width="7">
        <rect width="238" height="231" rx="115.5" stroke="none"/>
        <rect x="3.5" y="3.5" width="231" height="224" rx="112" fill="none"/>
      </g>
    </g>
    <g id="Group_145" data-name="Group 145" transform="translate(-255 -42)">
      <g id="sister-and-brother" transform="translate(1265.594 3684.69)">
        <circle id="Ellipse_13" data-name="Ellipse 13" cx="9.296" cy="9.296" r="9.296" transform="translate(56.118 13.503)"/>
        <path id="Path_118" data-name="Path 118" d="M89.1,142.97,74.8,118.413a4.085,4.085,0,0,0-3.126-2.008H59.493a4.085,4.085,0,0,0-3.126,2.008l-10.779,18.5L33.622,116.376a4.088,4.088,0,0,0-3.549-2.03c-.026,0-.052,0-.078,0H18.49c-.026,0-.052,0-.078,0a4.088,4.088,0,0,0-3.549,2.03L.557,140.933a4.093,4.093,0,1,0,7.073,4.121l6.31-10.832v4.637L11.116,159.21a2.852,2.852,0,0,0,2.824,3.243h0V174.91a4.387,4.387,0,0,0,4.162,4.42,4.32,4.32,0,0,0,4.477-4.317v-12.56h3.413V174.91a4.387,4.387,0,0,0,4.162,4.42,4.319,4.319,0,0,0,4.477-4.317v-12.56h0a2.852,2.852,0,0,0,2.824-3.243l-2.824-20.351V134.37l6.224,10.683c.212.363,1.681,2.931,2.681,3.513a4.092,4.092,0,0,0,5.6-1.476l6.133-10.526-.059,36.231a4.319,4.319,0,0,0,4.319,4.319l.03,0,.03,0a4.319,4.319,0,0,0,4.32-4.319l-.059-21.861a1.745,1.745,0,0,1,1.593-1.761,1.706,1.706,0,0,1,1.82,1.7v21.816a4.388,4.388,0,0,0,4.162,4.42,4.32,4.32,0,0,0,4.477-4.317v-36.23l6.133,10.526A4.093,4.093,0,0,0,89.1,142.97Z" transform="translate(0 -82.704)"/>
        <path id="Path_119" data-name="Path 119" d="M38.982,29.874l2.3-.205a2.234,2.234,0,0,0,2-2.658c-.395-1.991-.531-4.755,1.122-6.464,0,.072-.005.143-.005.215a9.3,9.3,0,1,0,18.592,0c0-.072,0-.144-.006-.215,1.654,1.709,1.517,4.473,1.122,6.464a2.235,2.235,0,0,0,2,2.658l2.3.205a2.238,2.238,0,0,0,2.425-1.991c.317-2.948.262-7.371-1.406-9.128a7.973,7.973,0,0,0-7.471-2.261,9.294,9.294,0,0,0-16.515,0,7.973,7.973,0,0,0-7.471,2.261c-1.667,1.756-1.722,6.18-1.406,9.128A2.238,2.238,0,0,0,38.982,29.874Z" transform="translate(-29.269)"/>
      </g>
      <g id="girl" transform="translate(1226.205 3647.336)">
        <g id="Group_142" data-name="Group 142" transform="translate(125.795 26.744)">
          <g id="Group_141" data-name="Group 141" transform="translate(0)">
            <path id="Path_120" data-name="Path 120" d="M193.439,147.79c-.086-.235-8.652-23.67-12.424-34.646-2.434-7.082-6.515-10.673-12.129-10.673H150.669c-5.614,0-9.7,3.591-12.129,10.673-3.772,10.976-12.338,34.411-12.424,34.646a5.246,5.246,0,1,0,9.853,3.6c.071-.2,5.944-16.263,10.133-28.094a5.945,5.945,0,0,0,2.149,3.035l.013,7.686-9.023,22.753a2.191,2.191,0,0,0,1.523,2.938c1.347.324,3.131.765,5.066,1.248v42.1a6.3,6.3,0,0,0,12.59,0V163.935a15.293,15.293,0,0,0,2.718,0v39.125a6.3,6.3,0,0,0,12.59,0V160.954c1.933-.483,3.715-.923,5.063-1.246a2.194,2.194,0,0,0,1.524-2.939l-9.022-22.749.013-7.686a5.943,5.943,0,0,0,2.149-3.035c4.188,11.831,10.061,27.9,10.133,28.094a5.246,5.246,0,0,0,9.854-3.6Z" transform="translate(-125.795 -102.471)"/>
          </g>
        </g>
        <g id="Group_144" data-name="Group 144" transform="translate(148.32 0)">
          <g id="Group_143" data-name="Group 143" transform="translate(0 0)">
            <circle id="Ellipse_14" data-name="Ellipse 14" cx="11.457" cy="11.457" r="11.457"/>
          </g>
        </g>
      </g>
    </g>
  </g>
</svg>
