<svg xmlns="http://www.w3.org/2000/svg" width="238" height="231" viewBox="0 0 238 231">
  <g id="Ministry_of_health" data-name="Ministry of health" transform="translate(-968 -3054)">
    <g id="Group_110" data-name="Group 110" transform="translate(-199 -13)">
      <g id="Rectangle_9" data-name="Rectangle 9" transform="translate(1167 3067)" fill="none" stroke="#000" stroke-width="7">
        <rect width="238" height="231" rx="115.5" stroke="none"/>
        <rect x="3.5" y="3.5" width="231" height="224" rx="112" fill="none"/>
      </g>
    </g>
    <g id="heart" transform="translate(1014.043 3065.451)">
      <g id="Group_139" data-name="Group 139" transform="translate(0 56.4)">
        <path id="Path_115" data-name="Path 115" d="M145.229,108.227h-12.5c5.2-11.8,4.635-21.349,2.669-27.81C132.026,68.9,120.649,56.4,103.8,56.4a39.511,39.511,0,0,0-13.624,2.528A70.663,70.663,0,0,0,74.44,66.794,67.435,67.435,0,0,0,58.71,58.928,40.116,40.116,0,0,0,45.086,56.4c-16.854,0-28.231,12.5-31.6,24.018-1.966,6.882-2.669,17.276,3.933,30.338H2.247a2.247,2.247,0,1,0,0,4.495H20.085a29.649,29.649,0,0,0,2.528,3.792C37.22,140.11,68.963,163,74.721,164.409v.14a.435.435,0,0,0,.281-.14h.421v-.14c4.916-2.388,35.394-22.051,51.406-45.366a51.674,51.674,0,0,0,3.933-6.32H145.51a2.219,2.219,0,0,0,2.247-2.247A2.36,2.36,0,0,0,145.229,108.227Zm-22.473,8.287c-14.888,21.77-42.276,39.327-48.175,43.119-6.039-3.792-33.287-21.489-48.316-43.119l-.843-1.264H46.069a2.317,2.317,0,0,0,2.107-1.264l9.41-18.54,14.748,37.782a2.3,2.3,0,0,0,2.107,1.4h.14a2.237,2.237,0,0,0,2.107-1.685L89.609,88.7l6.882,22.332a2.29,2.29,0,0,0,1.826,1.545,2.432,2.432,0,0,0,2.247-.983l5.478-8.006,4.635,7.865a2.242,2.242,0,0,0,1.966,1.124h12.641C124.442,113.986,123.6,115.25,122.756,116.514Zm5.056-8.287H114.048L108.29,98.4a2.242,2.242,0,0,0-1.966-1.124,2.125,2.125,0,0,0-1.966.983l-4.775,7.023L91.856,80.137a2.606,2.606,0,0,0-2.247-1.685,2.4,2.4,0,0,0-2.247,1.685L74.3,125.222,60.114,88.985a2.112,2.112,0,0,0-1.966-1.4,2.178,2.178,0,0,0-2.107,1.264l-11.1,21.77H22.613c-5.618-10.253-7.163-20.085-4.635-28.933,2.95-9.972,12.641-20.647,27.248-20.647A37.363,37.363,0,0,1,57.3,63.282a68.281,68.281,0,0,1,15.871,8.146,2.136,2.136,0,0,0,2.809,0s5.478-4.354,15.871-8.146a33.955,33.955,0,0,1,12.079-2.247c14.467,0,24.3,10.674,27.248,20.647C133.571,89.828,132.307,98.817,127.813,108.227Z" transform="translate(0 -56.4)"/>
      </g>
    </g>
  </g>
</svg>
