<svg xmlns="http://www.w3.org/2000/svg" width="238" height="231" viewBox="0 0 238 231">
  <g id="Ministry_of_Transport_" data-name="Ministry of Transport " transform="translate(-254 -2032)">
    <g id="Group_96" data-name="Group 96" transform="translate(-199 -1035)">
      <g id="Rectangle_9" data-name="Rectangle 9" transform="translate(453 3067)" fill="none" stroke="#000" stroke-width="7">
        <rect width="238" height="231" rx="115.5" stroke="none"/>
        <rect x="3.5" y="3.5" width="231" height="224" rx="112" fill="none"/>
      </g>
    </g>
    <g id="transportation" transform="translate(310.996 2088.769)">
      <g id="Group_112" data-name="Group 112" transform="translate(17.661 70.294)">
        <g id="Group_111" data-name="Group 111" transform="translate(0 0)">
          <rect id="Rectangle_31" data-name="Rectangle 31" width="15" height="4" transform="translate(0.343 -0.062)"/>
        </g>
      </g>
      <g id="Group_114" data-name="Group 114" transform="translate(54.715 72.297)">
        <g id="Group_113" data-name="Group 113">
          <path id="Path_84" data-name="Path 84" d="M286.326,316.62,280.464,304.9a1.954,1.954,0,0,0-1.748-1.08H266.992v-5.862A1.954,1.954,0,0,0,265.038,296H225.959a1.954,1.954,0,0,0-1.954,1.954v35.171a1.954,1.954,0,0,0,1.954,1.954h8.093a7.778,7.778,0,0,0,15.077,0h14.233a7.778,7.778,0,0,0,15.077,0h6.139a1.954,1.954,0,0,0,1.954-1.954V317.494A1.956,1.956,0,0,0,286.326,316.62Zm-44.735,20.414a3.908,3.908,0,1,1,3.908-3.908A3.908,3.908,0,0,1,241.591,337.033Zm21.494-5.862H249.129a7.778,7.778,0,0,0-15.077,0h-6.139V299.908h35.171Zm11.724-23.448h2.7l3.908,7.816h-6.608ZM270.9,337.033a3.908,3.908,0,1,1,3.908-3.908A3.908,3.908,0,0,1,270.9,337.033Zm11.724-5.862h-4.185a7.808,7.808,0,0,0-7.538-5.862,7.724,7.724,0,0,0-3.908,1.087V307.724H270.9v9.77a1.954,1.954,0,0,0,1.954,1.954h9.77Z" transform="translate(-224.005 -296)"/>
        </g>
      </g>
      <g id="Group_116" data-name="Group 116" transform="translate(43.071 27.227)">
        <g id="Group_115" data-name="Group 115" transform="translate(0 0)">
          <rect id="Rectangle_32" data-name="Rectangle 32" width="4" height="4" transform="translate(-0.067 0.004)"/>
        </g>
      </g>
      <g id="Group_118" data-name="Group 118" transform="translate(50.823 27.227)">
        <g id="Group_117" data-name="Group 117" transform="translate(0 0)">
          <rect id="Rectangle_33" data-name="Rectangle 33" width="4" height="4" transform="translate(0.181 0.004)"/>
        </g>
      </g>
      <g id="Group_120" data-name="Group 120" transform="translate(58.575 27.227)">
        <g id="Group_119" data-name="Group 119" transform="translate(0 0)">
          <rect id="Rectangle_34" data-name="Rectangle 34" width="3" height="4" transform="translate(0.429 0.004)"/>
        </g>
      </g>
      <g id="Group_122" data-name="Group 122" transform="translate(66.327 27.227)">
        <g id="Group_121" data-name="Group 121" transform="translate(0 0)">
          <rect id="Rectangle_35" data-name="Rectangle 35" width="4" height="4" transform="translate(-0.323 0.004)"/>
        </g>
      </g>
      <g id="Group_124" data-name="Group 124" transform="translate(19.544)">
        <g id="Group_123" data-name="Group 123">
          <path id="Path_85" data-name="Path 85" d="M168.1,32.637l-6.054-6.055a24.084,24.084,0,0,0-16.958-7.043H129.937l-9.2-14.713a1.956,1.956,0,0,0-1.657-.919h-5.862a1.955,1.955,0,0,0-1.9,2.428l3.3,13.2H99.045L93.6,1.393A1.954,1.954,0,0,0,91.729,0h-9.77a1.954,1.954,0,0,0-1.954,1.954v19.54h.018a1.939,1.939,0,0,0,.554,1.381L92.79,35.087a26.761,26.761,0,0,0,19.045,7.9h.532l-4.855,10.931A1.954,1.954,0,0,0,108.5,56.5q.086.038.175.068l5.858,1.954a1.955,1.955,0,0,0,2.219-.734l10.352-14.8h36.7a6.06,6.06,0,0,0,4.292-10.35ZM118,7.816l7.327,11.724h-6.673L115.725,7.816ZM83.913,3.908h6.362l4.69,15.632H83.913ZM114.391,54.35l-2.434-.812,6.422-14.459h6.695Zm51.424-16.61a2.124,2.124,0,0,1-2,1.339H129.843l.583-.834a1.954,1.954,0,0,0-1.6-3.074H117.109a1.954,1.954,0,0,0-1.786,1.161l-1.22,2.747h-2.268a22.881,22.881,0,0,1-16.282-6.755l-8.877-8.877h58.416a20.149,20.149,0,0,1,11.839,3.908h-14.4v3.908H161.2l4.143,4.143A2.1,2.1,0,0,1,165.815,37.74Z" transform="translate(-80.005)"/>
        </g>
      </g>
      <g id="Group_126" data-name="Group 126" transform="translate(0.004 54.711)">
        <g id="Group_125" data-name="Group 125">
          <path id="Path_86" data-name="Path 86" d="M47.9,281.183a7.808,7.808,0,0,0-4.669-2.417l7.461-20.892a1.956,1.956,0,0,0-1.187-2.5l-.036-.012-4.765-1.588-3.7-20.355a1.954,1.954,0,0,0-1.922-1.6H31.268v-5.862A1.954,1.954,0,0,0,29.314,224H21.5a1.954,1.954,0,0,0-1.954,1.954v5.862H11.728a1.954,1.954,0,0,0-1.922,1.6L6.1,253.775,1.34,255.364a1.956,1.956,0,0,0-1.234,2.475l.012.036,7.461,20.892a7.811,7.811,0,0,0-4.662,2.416A3.8,3.8,0,0,1,0,282.619v3.908a7.587,7.587,0,0,0,5.561-2.471,3.8,3.8,0,0,1,2.914-1.437,3.207,3.207,0,0,1,1.206.225c.016.007.027.023.043.03a6.047,6.047,0,0,1,1.646,1.2,7.683,7.683,0,0,0,5.579,2.449,7.583,7.583,0,0,0,5.56-2.472,3.662,3.662,0,0,1,5.814,0,7.575,7.575,0,0,0,5.557,2.473,7.67,7.67,0,0,0,5.574-2.45,6.053,6.053,0,0,1,1.631-1.2c.018-.007.029-.024.046-.032a3.19,3.19,0,0,1,1.21-.228,3.781,3.781,0,0,1,2.905,1.436,7.581,7.581,0,0,0,5.557,2.472v-3.908A3.782,3.782,0,0,1,47.9,281.183Zm-24.45-53.275H27.36v3.908H23.452Zm0,51.058a8.414,8.414,0,0,0-3.589,2.217,3.668,3.668,0,0,1-5.821,0,11.1,11.1,0,0,0-2-1.553L4.469,258.44l18.983-6.327Zm1.336-31.418-14.455,4.818,3.026-16.642H37.453l3.026,16.642-14.455-4.818A1.957,1.957,0,0,0,24.788,247.548ZM38.77,279.643a11.131,11.131,0,0,0-1.982,1.541,3.656,3.656,0,0,1-5.808,0,8.365,8.365,0,0,0-3.62-2.229V252.113l18.983,6.327Z" transform="translate(-0.004 -224)"/>
        </g>
      </g>
      <g id="Group_128" data-name="Group 128" transform="translate(74.079 27.227)">
        <g id="Group_127" data-name="Group 127" transform="translate(0 0)">
          <rect id="Rectangle_36" data-name="Rectangle 36" width="4" height="4" transform="translate(-0.075 0.004)"/>
        </g>
      </g>
    </g>
  </g>
</svg>
