<svg xmlns="http://www.w3.org/2000/svg" width="238" height="231" viewBox="0 0 238 231">
  <g id="Ministry_of_Labour_" data-name="Ministry of Labour " transform="translate(-254 -3565)">
    <g id="Group_184" data-name="Group 184">
      <g id="Group_105" data-name="Group 105" transform="translate(-199 -13)">
        <g id="Rectangle_9" data-name="Rectangle 9" transform="translate(453 3578)" fill="none" stroke="#000" stroke-width="7">
          <rect width="238" height="231" rx="115.5" stroke="none"/>
          <rect x="3.5" y="3.5" width="231" height="224" rx="112" fill="none"/>
        </g>
      </g>
      <g id="user" transform="translate(298.997 3606.997)">
        <g id="Group_140" data-name="Group 140">
          <path id="Path_116" data-name="Path 116" d="M121.467,77.153H128a11.069,11.069,0,1,0,0-4.392h-6.529a46.383,46.383,0,0,0-12.084-29.124l11.76-11.76a14.049,14.049,0,1,0-3.105-3.106l-11.76,11.76A46.383,46.383,0,0,0,77.153,28.448V21.919a11.069,11.069,0,1,0-4.392,0v6.529A46.385,46.385,0,0,0,43.637,40.531L31.878,28.772A14.014,14.014,0,0,0,28.374,8.9a2.2,2.2,0,0,0-2.457,3.641A9.634,9.634,0,1,1,17.9,11.26a2.2,2.2,0,0,0-1.2-4.225,14.029,14.029,0,1,0,12.07,24.844L40.532,43.637A46.383,46.383,0,0,0,28.448,72.761H21.919a11.07,11.07,0,1,0,0,4.392h6.529a46.383,46.383,0,0,0,12.084,29.124l-11.76,11.76a14.049,14.049,0,1,0,3.105,3.106l11.76-11.76a46.383,46.383,0,0,0,29.124,12.084V128a11.07,11.07,0,1,0,4.392,0v-6.529a46.384,46.384,0,0,0,29.124-12.084l11.759,11.759a14.019,14.019,0,1,0,24.653,3.793,2.2,2.2,0,1,0-4.167,1.389,9.63,9.63,0,1,1-5.618-5.915,2.2,2.2,0,1,0,1.607-4.088,14.015,14.015,0,0,0-13.369,1.715l-11.759-11.759a46.387,46.387,0,0,0,12.083-29.124Zm17.378-8.873a6.677,6.677,0,1,1-6.677,6.677A6.685,6.685,0,0,1,138.845,68.28ZM129.38,10.9a9.635,9.635,0,1,1-9.635,9.635A9.646,9.646,0,0,1,129.38,10.9Zm-61.1.17a6.677,6.677,0,1,1,6.677,6.677A6.685,6.685,0,0,1,68.28,11.069ZM11.069,81.635a6.677,6.677,0,1,1,6.677-6.677A6.685,6.685,0,0,1,11.069,81.635ZM74.957,32.787A42.171,42.171,0,1,1,32.787,74.957,42.218,42.218,0,0,1,74.957,32.787ZM20.534,139.015a9.635,9.635,0,1,1,9.635-9.635A9.646,9.646,0,0,1,20.534,139.015Zm61.1-.17a6.677,6.677,0,1,1-6.677-6.677A6.685,6.685,0,0,1,81.635,138.845Z"/>
          <path id="Path_117" data-name="Path 117" d="M165.847,206.3h19.72a2.2,2.2,0,0,0,0-4.392h-5.1v-3.719a2.2,2.2,0,0,0-4.392,0v3.719h-8.03V191.09a9.646,9.646,0,0,1,9.633-9.636h26.03a9.645,9.645,0,0,1,9.633,9.636v10.816h-8.03v-3.719a2.2,2.2,0,0,0-4.392,0v3.719h-5.1a2.2,2.2,0,0,0,0,4.392h19.72a2.2,2.2,0,0,0,2.2-2.2V191.09a14.042,14.042,0,0,0-14.025-14.028h-1.63a16.985,16.985,0,1,0-22.769,0h-1.63a14.042,14.042,0,0,0-14.025,14.028V204.1a2.2,2.2,0,0,0,2.2,2.2ZM178.1,164.469a12.593,12.593,0,1,1,12.593,12.593A12.607,12.607,0,0,1,178.1,164.469Z" transform="translate(-115.734 -104.3)"/>
        </g>
      </g>
    </g>
  </g>
</svg>
