<svg xmlns="http://www.w3.org/2000/svg" width="238" height="231" viewBox="0 0 238 231">
  <g id="Ministry_of_Finance" data-name="Ministry of Finance" transform="translate(-1686 -2032)">
    <g id="Group_97" data-name="Group 97" transform="translate(-199 -1035)">
      <g id="Rectangle_9" data-name="Rectangle 9" transform="translate(1885 3067)" fill="none" stroke="#000" stroke-width="7">
        <rect width="238" height="231" rx="115.5" stroke="none"/>
        <rect x="3.5" y="3.5" width="231" height="224" rx="112" fill="none"/>
      </g>
    </g>
    <g id="money" transform="translate(1737.706 2055.481)">
      <g id="Group_132" data-name="Group 132" transform="translate(0 28.588)">
        <g id="Group_131" data-name="Group 131" transform="translate(0 0)">
          <path id="Path_98" data-name="Path 98" d="M136.714,95.188v0l-25.848-64.9a2.688,2.688,0,0,0-3.491-1.5h0L2.507,70.536a2.633,2.633,0,0,0-1.075.855A2.658,2.658,0,0,0,0,73.724V143.6a2.688,2.688,0,0,0,2.688,2.688H115.563a2.688,2.688,0,0,0,2.688-2.687V105.436l16.964-6.756A2.687,2.687,0,0,0,136.714,95.188Zm-23.839,45.724H5.375v-64.5h107.5ZM44.841,71.05l45-17.931a21.382,21.382,0,0,0,15.407,6.644l4.488,11.288ZM118.25,99.664V73.724a2.688,2.688,0,0,0-2.688-2.688h-.043l-5.695-14.3a2.225,2.225,0,0,0-.22-.339,2.655,2.655,0,0,0-2.808-2.069,16.071,16.071,0,0,1-14.091-6.068,2.664,2.664,0,0,0-3.448-.6,3.02,3.02,0,0,0-.379.07L33.941,69.6a2.655,2.655,0,0,0-1.475,1.435H15.781l91.085-36.268,23.862,59.918Z" transform="translate(0 -28.588)"/>
          <path id="Path_99" data-name="Path 99" d="M33.919,227.927a16.069,16.069,0,0,1,10.849,10.836,2.687,2.687,0,0,0,2.575,1.919,2.464,2.464,0,0,0,.414-.062,2.5,2.5,0,0,0,.368.075h64.5a2.314,2.314,0,0,0,.328-.067,2.5,2.5,0,0,0,3.023-1.84l0-.015a16.068,16.068,0,0,1,10.849-10.849,2.653,2.653,0,0,0,1.844-2.956,2.711,2.711,0,0,0,.078-.4v-21.5a2.425,2.425,0,0,0-.081-.4,2.65,2.65,0,0,0-1.844-2.956,16.052,16.052,0,0,1-10.844-10.852A2.655,2.655,0,0,0,113,187.02a2.555,2.555,0,0,0-.379-.075h-64.5a2.539,2.539,0,0,0-.4.081,2.655,2.655,0,0,0-2.956,1.844,16.069,16.069,0,0,1-10.849,10.847,2.653,2.653,0,0,0-1.844,2.956,2.713,2.713,0,0,0-.075.4v21.5a2.478,2.478,0,0,0,.075.374A2.661,2.661,0,0,0,33.919,227.927Zm3.456-23.766A21.326,21.326,0,0,0,49.216,192.32h62.315a21.331,21.331,0,0,0,11.844,11.841v19.318a21.35,21.35,0,0,0-11.841,11.841H49.216a21.35,21.35,0,0,0-11.841-11.841Z" transform="translate(-21.25 -133.747)"/>
          <path id="Path_100" data-name="Path 100" d="M144.125,251.2A16.125,16.125,0,1,0,128,235.07,16.125,16.125,0,0,0,144.125,251.2Zm0-26.875a10.75,10.75,0,1,1-10.75,10.75A10.75,10.75,0,0,1,144.125,224.32Z" transform="translate(-85 -154.997)"/>
          <path id="Path_101" data-name="Path 101" d="M80.031,263.008A4.031,4.031,0,1,0,76,258.976,4.031,4.031,0,0,0,80.031,263.008Zm0-5.375a1.344,1.344,0,1,1-1.344,1.344A1.344,1.344,0,0,1,80.031,257.633Z" transform="translate(-50.469 -178.903)"/>
          <path id="Path_102" data-name="Path 102" d="M256.031,263.008A4.031,4.031,0,1,0,252,258.976,4.031,4.031,0,0,0,256.031,263.008Zm0-5.375a1.344,1.344,0,1,1-1.344,1.344A1.344,1.344,0,0,1,256.031,257.633Z" transform="translate(-167.344 -178.903)"/>
        </g>
      </g>
    </g>
  </g>
</svg>
