<svg xmlns="http://www.w3.org/2000/svg" width="238" height="231" viewBox="0 0 238 231">
  <g id="Office_of_the_Mayor" data-name="Office of the Mayor" transform="translate(-254 -4587)">
    <g id="Group_106" data-name="Group 106" transform="translate(-199 1009)">
      <g id="Rectangle_9" data-name="Rectangle 9" transform="translate(453 3578)" fill="none" stroke="#000" stroke-width="7">
        <rect width="238" height="231" rx="115.5" stroke="none"/>
        <rect x="3.5" y="3.5" width="231" height="224" rx="112" fill="none"/>
      </g>
    </g>
    <g id="speech" transform="translate(310 4648)">
      <g id="Group_164" data-name="Group 164" transform="translate(0 0)">
        <path id="Path_137" data-name="Path 137" d="M114.991,77.064h-14.7v-19.5a11.07,11.07,0,0,0-3.264-7.879l-2.561-2.561A3.3,3.3,0,1,0,92,49.588l2.561,2.561A7.6,7.6,0,0,1,96.8,57.561v19.5H90.186V63.857a13.511,13.511,0,0,0-10-13.032L67.4,47.4V42.441a15.376,15.376,0,0,0,7.518-13.207V11.142A6.921,6.921,0,0,0,68,4.229H65.725A5.983,5.983,0,0,0,60.012,0h-4.7A11.155,11.155,0,0,0,44.171,11.142V29.234a15.376,15.376,0,0,0,7.518,13.207V47.4L38.9,50.825a13.511,13.511,0,0,0-10,13.032V77.064H22.285v-19.5a7.6,7.6,0,0,1,2.242-5.412l2.561-2.561a3.3,3.3,0,1,0-2.467-2.467L22.06,49.682A11.069,11.069,0,0,0,18.8,57.561v19.5H4.094A4.1,4.1,0,0,0,0,81.158v3.289a4.1,4.1,0,0,0,4.094,4.094H4.7v3.894A4.1,4.1,0,0,0,8.793,96.53H9.4v20.81a1.744,1.744,0,0,0,3.489,0V96.529H18.8V117.34a1.744,1.744,0,0,0,3.489,0V96.529h7.586a1.744,1.744,0,1,0,0-3.489H8.793a.606.606,0,0,1-.605-.605V88.541H96.781a1.744,1.744,0,1,0,0-3.489H4.094a.606.606,0,0,1-.605-.605V81.157a.606.606,0,0,1,.605-.605h110.9a.606.606,0,0,1,.605.605v3.289a.606.606,0,0,1-.605.605H104.955a1.744,1.744,0,0,0,0,3.489H110.9v3.894a.606.606,0,0,1-.605.605H38.044a1.744,1.744,0,0,0,0,3.489H96.8V117.34a1.744,1.744,0,1,0,3.489,0V96.529H106.2V117.34a1.744,1.744,0,0,0,3.489,0V96.529h.605a4.1,4.1,0,0,0,4.094-4.094V88.541h.605a4.1,4.1,0,0,0,4.094-4.094V81.157a4.1,4.1,0,0,0-4.094-4.094ZM55.84,55.658,52.69,58.282l-.011.009L50.634,60l-2.244-8.1L52,50.924a7.886,7.886,0,0,0,3.838,4.734Zm2.6,11.972H60.67l3.43,9.433H55.2Zm2.414-3.489H58.233L56.02,60.049l3.522-2.935,3.522,2.935Zm5.553-5.85-.011-.009-3.149-2.625a7.888,7.888,0,0,0,3.838-4.734l3.612.968L68.451,60Zm5.02-47.149v7.419H68.94a2.958,2.958,0,0,1-2.955-2.955V7.718H68a3.428,3.428,0,0,1,3.425,3.424Zm-23.765,0a7.662,7.662,0,0,1,7.654-7.654h4.7A2.487,2.487,0,0,1,62.5,5.974v9.633a2.958,2.958,0,0,1-2.955,2.955H47.66V11.142Zm0,18.091V22.05H59.542a6.425,6.425,0,0,0,4.7-2.041,6.425,6.425,0,0,0,4.7,2.041h2.485v7.184a11.883,11.883,0,1,1-23.765,0ZM59.542,44.605a15.317,15.317,0,0,0,4.364-.635v4.764a4.364,4.364,0,1,1-8.729,0V43.97A15.317,15.317,0,0,0,59.542,44.605ZM32.388,63.857A10.017,10.017,0,0,1,39.8,54.195l5.219-1.4,2.973,10.736a1.745,1.745,0,0,0,2.8.875l2.495-2.079,2.009,3.715L51.512,77.064H44.84V74.109a1.744,1.744,0,1,0-3.489,0v2.955H32.388ZM77.733,77.064V74.109a1.744,1.744,0,0,0-3.489,0v2.955H67.812L63.8,66.026l2-3.7,2.495,2.079a1.745,1.745,0,0,0,2.8-.875L74.065,52.8l5.219,1.4A10.017,10.017,0,0,1,86.7,63.857V77.064Z" transform="translate(0 0)"/>
        <path id="Path_138" data-name="Path 138" d="M373.113,0H345.858a6.451,6.451,0,0,0-6.443,6.443v18.8a6.451,6.451,0,0,0,6.443,6.443h.84v6.244a1.745,1.745,0,0,0,2.96,1.251l7.716-7.5h4.751a1.744,1.744,0,0,0,0-3.489h-5.458a1.745,1.745,0,0,0-1.216.493L350.187,33.8V29.939a1.744,1.744,0,0,0-1.744-1.744h-2.585A2.958,2.958,0,0,1,342.9,25.24V6.443a2.958,2.958,0,0,1,2.955-2.955h27.254a2.958,2.958,0,0,1,2.954,2.955v18.8a2.958,2.958,0,0,1-2.955,2.955h-2.827a1.744,1.744,0,1,0,0,3.489h2.827a6.451,6.451,0,0,0,6.443-6.443V6.443A6.451,6.451,0,0,0,373.113,0Z" transform="translate(-260.471 0)"/>
      </g>
    </g>
  </g>
</svg>
