<svg xmlns="http://www.w3.org/2000/svg" width="238" height="231" viewBox="0 0 238 231">
  <g id="Public_Service" data-name="Public Service" transform="translate(-968 -2543)">
    <g id="Group_94" data-name="Group 94" transform="translate(-199 -1035)">
      <g id="Rectangle_9" data-name="Rectangle 9" transform="translate(1167 3578)" fill="none" stroke="#000" stroke-width="7">
        <rect width="238" height="231" rx="115.5" stroke="none"/>
        <rect x="3.5" y="3.5" width="231" height="224" rx="112" fill="none"/>
      </g>
    </g>
    <g id="employee" transform="translate(990.288 2567.288)">
      <path id="Path_104" data-name="Path 104" d="M166.424,28.535a2.507,2.507,0,0,0-2.507-2.507H101.24V18.507a2.507,2.507,0,0,0-4.28-1.773c-4,4-11.515,6.787-18.284,6.787H53.606A12.549,12.549,0,0,0,41.071,36.056v2.507a2.506,2.506,0,0,0,.129.792l4.9,14.689c.114,6.6,2.783,14.481,7.036,20.693a36.191,36.191,0,0,0,2.981,3.8v5.15H53.606a2.507,2.507,0,0,0-2.086,1.116l-5.014,7.521a2.507,2.507,0,0,0,.313,3.164l1.519,1.519-20.6,6.865a2.507,2.507,0,0,0-1.6,1.641L16.111,138.108a2.507,2.507,0,0,0,2.4,3.244H86.854a40.038,40.038,0,0,0,38.832-.017L148.57,164.22a7.521,7.521,0,1,0,10.637-10.637l-21.93-21.929a40.156,40.156,0,0,0,6.161-10.358h20.479a2.507,2.507,0,0,0,2.507-2.507ZM46.085,36.056a7.53,7.53,0,0,1,7.521-7.521H78.677a35.259,35.259,0,0,0,17.549-4.912V38.156l-2.721,8.163-2.472-6.181A2.507,2.507,0,0,0,88.7,38.563h-35.1a2.507,2.507,0,0,0-2.328,1.576L48.806,46.32l-2.721-8.164Zm5.026,18L55.3,43.577h31.7L91.2,54.058c-.125,5.844-2.664,12.974-6.569,18.424a40.424,40.424,0,0,0-8.84,7.706,11.758,11.758,0,0,1-4.636,1c-4.788,0-9.849-3.382-13.886-9.279C53.562,66.491,51.23,59.7,51.111,54.06Zm16.961,39.9-6.944-4.166V82.941A17.948,17.948,0,0,0,71.155,86.2c.125,0,.251-.008.376-.011a39.911,39.911,0,0,0-3.46,7.773ZM54.948,88.7h1.165v2.507a2.507,2.507,0,0,0,1.217,2.15l9.464,5.678q-.153.84-.27,1.692l-3.162,4.213L51.818,93.4ZM41.071,118.789a2.507,2.507,0,0,0-2.507,2.507v15.042H21.9l8.649-28.115,21.749-7.25,9.272,9.272,1.889,3.778-4.744,16.611a2.511,2.511,0,0,0-.1.689v5.014H43.578V121.3A2.507,2.507,0,0,0,41.071,118.789Zm22.564,17.549v-4.663l4.082-14.285a40.194,40.194,0,0,0,12.038,18.948ZM156.4,158.9a2.507,2.507,0,0,1-4.28,1.772L130,138.561a40.442,40.442,0,0,0,3.859-3.232l21.8,21.8a2.49,2.49,0,0,1,.734,1.772Zm-50.141-17.549a35.1,35.1,0,1,1,35.1-35.1,35.1,35.1,0,0,1-35.1,35.1Zm55.155-25.071H145.1a39.95,39.95,0,0,0,1.189-7.521h7.6a2.507,2.507,0,1,0,0-5.014h-7.6a39.95,39.95,0,0,0-1.189-7.521h8.79a2.507,2.507,0,0,0,0-5.014H143.438A40.058,40.058,0,0,0,139.4,83.69h14.486a2.507,2.507,0,0,0,0-5.014H135.356a40.367,40.367,0,0,0-9.7-7.521h28.234a2.507,2.507,0,0,0,0-5.014H106.254a39.927,39.927,0,0,0-13.573,2.365,41.509,41.509,0,0,0,2.575-7.38H123.8a2.507,2.507,0,1,0,0-5.014h-27.7q.094-1.048.109-2.066L97.2,51.1H123.8a2.507,2.507,0,1,0,0-5.014H98.869l1.671-5.014H123.8a2.507,2.507,0,0,0,0-5.014H101.24V31.042h60.17Z" transform="translate(0 0)"/>
      <ellipse id="Ellipse_11" data-name="Ellipse 11" cx="2.5" cy="2" rx="2.5" ry="2" transform="translate(60.712 51.712)"/>
      <circle id="Ellipse_12" data-name="Ellipse 12" cx="2" cy="2" r="2" transform="translate(76.712 51.712)"/>
      <path id="Path_105" data-name="Path 105" d="M161.116,172.592a16.024,16.024,0,0,0,17.824,0,2.507,2.507,0,1,0-2.782-4.172,11.023,11.023,0,0,1-12.261,0,2.507,2.507,0,1,0-2.782,4.172Z" transform="translate(-98.872 -104.366)"/>
      <path id="Path_106" data-name="Path 106" d="M238.085,208a30.085,30.085,0,1,0,30.085,30.085A30.085,30.085,0,0,0,238.085,208Zm0,55.155a25.071,25.071,0,1,1,25.071-25.071A25.071,25.071,0,0,1,238.085,263.155Z" transform="translate(-131.83 -131.831)"/>
      <path id="Path_107" data-name="Path 107" d="M260.057,313.549a15.059,15.059,0,0,1-15.042-15.042,2.507,2.507,0,0,0-5.014,0,20.079,20.079,0,0,0,20.057,20.057,2.507,2.507,0,0,0,0-5.014Z" transform="translate(-153.802 -192.253)"/>
      <path id="Path_108" data-name="Path 108" d="M292.791,264.734,279.521,278l-3.241-3.242a2.507,2.507,0,1,0-3.546,3.546l5.014,5.014a2.507,2.507,0,0,0,3.546,0l15.042-15.042a2.507,2.507,0,1,0-3.546-3.546Z" transform="translate(-175.774 -170.281)"/>
      <path id="Path_109" data-name="Path 109" d="M386.507,105.071h20.057a2.507,2.507,0,0,0,2.507-2.507V82.507A2.507,2.507,0,0,0,406.564,80H386.507A2.507,2.507,0,0,0,384,82.507v20.057A2.507,2.507,0,0,0,386.507,105.071Zm2.507-20.057h15.042v15.042H389.014Z" transform="translate(-252.675 -43.944)"/>
    </g>
  </g>
</svg>
